<?xml version="1.0" encoding="utf-8"?>
<!-- Generator: Adobe Illustrator 27.0.0, SVG Export Plug-In . SVG Version: 6.00 Build 0)  -->
<svg version="1.1" xmlns="http://www.w3.org/2000/svg" xmlns:xlink="http://www.w3.org/1999/xlink" x="0px" y="0px"
	 viewBox="0 0 612 792" style="enable-background:new 0 0 612 792;" xml:space="preserve">
<style type="text/css">
	.st0{fill:none;}
	.st1{fill:#FFFFFF;}
	.st2{font-family:'EscoffierCapitaux';}
	.st3{font-size:75px;}
	.st4{font-family:'AvenirNext-Regular';}
	.st5{font-size:40px;}
	.st6{display:none;}
	.st7{fill:#27B2D1;}
</style>
<g id="Layer_1">
	<rect x="-2.2" width="614.2" height="792"/>
	<rect x="19.8" y="68.1" class="st0" width="570.2" height="73.8"/>
	<text transform="matrix(1 0 0 1 32.6834 125.4458)" class="st1 st2 st3">The Black Cat</text>
	<rect x="113.1" y="159.6" class="st0" width="385.8" height="109.2"/>
	<text transform="matrix(1 0 0 1 159.2616 189.8001)" class="st1 st4 st5">Edgar Allan Poe</text>
</g>
<g id="Layer_2" class="st6">
	
		<image style="display:inline;overflow:visible;" width="600" height="600" xlink:href="../cat-silhouette-01.png"  transform="matrix(0.7778 0 0 0.7778 98.4965 166.6525)">
	</image>
</g>
<g id="Layer_3">
	<path class="st7" d="M158.3,415.2c0,0,4.2-29.2,72.6-8.9c0,0,61.9,13.1,69.1,16.1c0,0,31-1.8,69.1-23.2s26.8-7.1,72.1-43.5
		c0,0,14.3-8.3,34.5-11.9c0,0,3,3.6,26.2-51.8c0,0,22-39.3,52.4-32.2c0,0,15.5,9.5,29.2,44.7c0,0,17.3,14.3,20.8,42.9l7.7,17.3V792
		c0,0-12.5,1.3-29.8-2.8c0,0-26.2-17.3-28.6-26.8c0,0-31,26.8-96.5,11.3c0,0-50.6-17.9-64.3-32.8c-13.7-14.9-32.2-23.8-32.2-23.8
		s-61.9-20.8-67.3-44.1c0,0-33.3-28-31-54.8C264.8,591.5,250,554,250,554s-26.8-23.2-35.1-45.3c0,0-25.6-36.3-33.3-44.1
		C173.7,456.9,158.3,415.2,158.3,415.2z"/>
	<path d="M509.6,579c-0.8-1.6,0-36.6,71-35.7c0,0-2.7,52.3-41.5,54.9C539.1,598.2,520.7,600.9,509.6,579z"/>
	<path d="M414.5,627.2c0,0-16.9-43.9-79-10.3c0,0,9.7,39.3,49.7,37.5C385.1,654.4,409.5,650.9,414.5,627.2z"/>
	<path class="st7" d="M364.8,605.6l20.4,36.8l-3.3-38.1C381.9,604.2,369.5,601.4,364.8,605.6z"/>
	<path class="st7" d="M536.8,543.1l16.1,38.9l1-38.3C554,543.7,542.1,539.5,536.8,543.1z"/>
	<path d="M475.6,343.8"/>
</g>
</svg>
