<?xml version="1.0" encoding="utf-8"?>
<!-- Generator: Adobe Illustrator 27.0.0, SVG Export Plug-In . SVG Version: 6.00 Build 0)  -->
<svg version="1.1" id="Layer_1" xmlns="http://www.w3.org/2000/svg" xmlns:xlink="http://www.w3.org/1999/xlink" x="0px" y="0px"
	 viewBox="0 0 1440 152" style="enable-background:new 0 0 1440 152;" xml:space="preserve">
<style type="text/css">
	.st0{fill:none;}
	.st1{fill:#98B9C4;stroke:#FFFFFF;stroke-width:2;stroke-miterlimit:10;}
	.st2{fill:#98B9C4;stroke:#FFFFFF;stroke-miterlimit:10;}
</style>
<path class="st0" d="M1426.9,115.6c-1.1,0.7-2.4,1-3.7,1c1.6,0,3.1-0.3,4.4-1c8.6-5.2,7.4-10.5,6.8-12c-0.4-0.1-0.7-0.2-1.1-0.4
	C1433.3,103.2,1436.7,109.5,1426.9,115.6z"/>
<path d="M1432.5,47.7c1.3,0.4,2.7,0.9,4.1,1.6c1.2,0.6,2.3,1.2,3.4,2V0h-145.6c0.2,1.3,0.2,2.7,0.1,3.9c-0.5,3.7-1.8,7.4-4.7,9.8
	c-0.8,0.6-1.4,0.9-2.4,1.1c-0.9,0.2-2.1,0.2-3,0.1c-1.4-0.2-2.8-0.5-3.9-1.3c-1.4-1-2.2-2.8-2.3-4.5c-0.1-1.7,0.4-3.4,1.1-5
	c0.6-1.5,1.5-2.8,2.4-4.1h-19.5c2.3,0.8,4.3,2.2,5.9,4.3c0.6,0.8,1.2,1.7,1.7,2.8c1.2,2.2,1.9,4.6,2.3,7c0.3,2,1.2,5.2,3.2,7.7
	c0,0,4.2,6.2,4.8,13.4c0.6,7.6-6.9,13.4-13.9,10.6c-2.2-0.9-4.5-2.9-5.3-5.9c0,0-8.1,10.3-15.9-2c0,0-0.6,5.2-9.3,4.4
	c-4-0.4-7.5-6.1-7.2-9.3c0.6-6.3,4.5-13.6,10.5-17.8c3.1-2.2,5.4-5.4,7.5-8.5c0.8-1.3,1.9-2.6,3.3-3.9c1.3-1.2,2.8-2.1,4.4-2.6
	h-14.6c0.2,1.6,0.2,3.3-0.3,4.8c-0.6,1.6-1.8,3.1-3.4,3.7c-1.3,0.5-2.8,0.4-4.1,0.2c-0.9-0.1-2-0.4-2.8-0.8
	c-0.9-0.4-1.5-0.9-2.1-1.7c-1.3-1.8-1.9-4-2.1-6.2H895.4c0.9,1.9,1.1,4.5,0.8,6.4c-0.5,3.7-1.8,7.4-4.7,9.8
	c-0.8,0.6-1.5,0.9-2.4,1.1c-0.9,0.1-2,0.2-3,0c-1.4-0.2-2.8-0.5-3.9-1.3c-1.4-1-2.2-2.8-2.3-4.5c-0.1-1.7,0.4-3.4,1.1-5
	c1.1-2.5,2.7-4.8,4.7-6.6H841c0.2,0.7,0.4,1.5,0.5,2.3c0.2,1.7,0.3,3.4-0.3,5.1s-1.8,3.1-3.4,3.7c-1.3,0.5-2.8,0.4-4.1,0.2
	c-0.9-0.1-2-0.4-2.8-0.8c-0.9-0.4-1.5-0.9-2.1-1.7c-1.8-2.5-2.2-5.6-2.1-8.7H650.4c0.8,0.6,1.4,1.4,2,2.6c1,2.1,1.1,4.6,0.8,6.9
	c-0.5,4-1.8,7.8-3.9,11.3c-1.2,2-2.8,4-4.8,5.2s-4.7,1.8-7,1c-1.8-0.7-3.3-2.1-4.7-3.4c-0.9-0.9-1.8-2.3-2.3-3.5
	c-0.6-1.3-0.8-2.3-0.7-3.7c0.4-5.2,3.7-9.7,7.5-13.3c1.2-1.1,2.8-2.3,4.6-3.1H306.4c-0.4,1.7-1,3.3-2,4.7c-0.6,0.9-1.3,1.5-2.3,1.9
	c-1,0.4-2.2,0.9-3.2,1c-1.6,0.1-3.2,0.3-4.7-0.3c-1.9-0.7-3.2-2.3-3.9-4.2c-0.3-1-0.5-2.1-0.5-3.1h-5.2c-0.4,1.2-1,2.3-1.8,3.2
	c-1.3,1.5-3.2,2.5-5.2,2.4c-1.6-0.1-3-0.8-4.4-1.6c-0.9-0.5-1.9-1.3-2.6-2.1c-0.6-0.6-0.9-1.2-1.2-1.9h-9.5c1.2,0.8,2.1,1.8,2.9,3
	c1.5,2.4,2.6,5.1,3,8c0.2,1.7,0.3,3.4-0.3,5.1s-1.8,3.1-3.4,3.7c-1.3,0.5-2.8,0.4-4.1,0.2c-0.9-0.1-2-0.4-2.8-0.8
	c-0.9-0.4-1.5-0.9-2.1-1.7c-2.1-3-2.4-7-1.9-10.7c0.3-2.3,1.4-5.3,3.3-6.8H0v152h84c0.2-1.7,1.2-3.6,3.3-3.1c0.8,0.2,1.5,0.8,2,1.4
	c0.5,0.5,0.9,1.1,1.3,1.7h20.7c0.4-1.1,0.9-2.1,1.6-3c0.5-0.7,1.1-1.2,1.9-1.5c2.5-0.9,3.6,2,3.6,3.9c0,0.2,0,0.4,0,0.7h87.9
	c-0.6-4.4-0.2-9.2,1.5-13.4c1.5-3.5,1.8-7.4,1.8-11.2c0-1.5,0.2-3.3,0.7-5.1c1.9-7,9.4-11,16.2-8.3c0.9,0.4,1.9,0.8,2.9,1.4
	c2.2,1.2,4.1,2.8,5.7,4.7c1.3,1.5,3.8,3.8,6.8,4.8c0,0,6.9,3,11.2,8.7c4.6,6.1,1.3,15-6.1,16.4c-2.3,0.4-5.4-0.1-7.6-2.1
	c0,0-0.2,2.1-1.3,4.2h93.4c-1.4-1.1-2.1-3.5-1.7-4.9c1-3,3.6-6,7-7.5c1.7-0.7,3.2-2,4.6-3.3c0.5-0.5,1.2-1.1,2-1.5
	c3.1-1.8,7.1-0.5,8.6,2.8c0.2,0.5,0.4,1,0.5,1.5c0.3,1.2,0.4,2.4,0.3,3.6c-0.1,1,0,2.6,0.7,4.1c0,0,0.9,2.4,1,5.2h314.1
	c1-1.2,1.7-2.6,2.3-4c0.3-0.7,0.7-1.4,1.3-2.2c2.2-2.8,6.4-3.2,9-0.7c0.4,0.3,0.7,0.7,1.1,1.2c0.8,1,1.3,2.1,1.7,3.2
	c0.2,0.7,0.7,1.7,1.3,2.5h99.8c-0.5-0.5-0.8-1-1.1-1.4c-2.9-5.7-3.5-13.9-0.7-20.7c1.5-3.5,1.8-7.4,1.8-11.2c0-1.5,0.2-3.3,0.7-5.1
	c1.9-7,9.4-11,16.2-8.3c0.9,0.4,1.9,0.8,2.9,1.4c2.2,1.2,4.1,2.8,5.7,4.7c1.3,1.5,3.8,3.8,6.8,4.8c0,0,6.9,3,11.2,8.7
	c4.6,6.1,1.3,15-6.1,16.4c-2.3,0.4-5.4-0.1-7.6-2.1c0,0-1.3,13-14.5,6.9c0,0,1.4,2.9-1.7,6.1h388.6c-2.3-0.9-4.3-2.4-5.1-4
	c-2.9-5.7-3.5-13.8-0.7-20.7c1.5-3.5,1.8-7.4,1.8-11.2c0-1.5,0.2-3.3,0.7-5.1c1.9-7,9.4-11,16.2-8.3c0.9,0.4,1.9,0.8,2.9,1.4
	c2.2,1.2,4.1,2.8,5.7,4.7c1.3,1.5,3.8,3.8,6.8,4.8c0,0,6.9,3,11.2,8.7c4.6,6.1,1.3,15-6.1,16.4c-2.3,0.4-5.4-0.1-7.6-2.1
	c0,0-1.3,13-14.5,6.9c0,0,2.2,4.7-5.3,8.6H1440v-47.3c-0.4,0-0.7-0.1-1.1-0.2v0.2c-1.3-0.2-2.8-0.5-4.5-1.1c0.6,1.5,1.8,6.7-6.8,12
	c-1.3,0.8-2.8,1.1-4.4,1c-4.3,0.1-9.5-2.6-11.1-5.5c-4.3-7.5-5.8-18.5-2.8-28.1c1.6-5,1.6-10.3,1.3-15.5c-0.1-2.1,0-4.5,0.5-7
	c1.5-8.1,8.4-13.6,15.9-13.6C1428.8,46.9,1430.6,47.2,1432.5,47.7z M54,25.1c0.4-5.2,3.7-9.7,7.5-13.3c4-3.7,12-7.4,15.2-0.5
	c1,2.1,1,4.6,0.8,6.9c-0.5,4-1.8,7.8-3.9,11.3c-1.2,2-2.8,4-4.8,5.2c-2.1,1.3-4.7,1.8-7,1c-1.9-0.7-3.3-2.1-4.7-3.5
	c-0.9-0.9-1.8-2.3-2.3-3.5C54.1,27.5,53.9,26.5,54,25.1z M29.8,27.4c2-4.3,7.2-10.1,12.2-5.6c1.6,1.4,2.4,3.4,3,5.4
	c1,3.4,1.2,7,0.6,10.5c-0.3,2.1-0.9,4.2-2.2,5.9c-1.2,1.7-3.2,3.1-5.4,3.2c-1.7,0.1-3.4-0.6-5-1.2c-1.1-0.4-2.2-1.3-3.1-2
	c-0.9-0.8-1.4-1.6-1.8-2.8C26.8,36.4,27.9,31.6,29.8,27.4z M80.7,94.6c-2,9.2-13,13.4-20.4,7.5c-2.3-1.8-4.3-5.1-4.2-8.9
	c0,0-13.3,9.2-18.2-8.2c0,0-2.7,6-12.7,1.9c-4.7-1.9-6.6-10-5.1-13.7c3-7.3,10.3-14.5,19-17.4c4.5-1.5,8.4-4.4,12.1-7.4
	c1.5-1.2,3.3-2.4,5.4-3.5c8.2-3.9,18,0,21,8.6c0.4,1.2,0.8,2.5,1,3.9c0.6,3,0.6,6.1,0.2,9.2c-0.3,2.5-0.5,6.6,1,10.4
	C79.9,77,82.7,85.9,80.7,94.6z M86.3,45.8c-1.9-0.4-3.9-0.8-5.5-2c-2-1.5-3-4-3-6.4c-0.1-2.4,0.7-4.8,1.7-6.9
	c1.7-3.6,4.2-6.9,7.3-9.5c1.8-1.5,3.9-2.8,6.2-3.2c7.5-1.1,8.8,7.6,7.9,13c-0.9,5.1-2.9,10.3-7,13.5c-1.1,0.9-2.1,1.2-3.5,1.5
	C89.1,46,87.5,46.1,86.3,45.8z M99.7,146c-0.1,0.9-0.3,1.9-0.8,2.7c-0.5,0.8-1.3,1.5-2.3,1.6c-0.8,0.1-1.5-0.1-2.3-0.4
	c-0.5-0.2-1-0.5-1.5-0.8c-0.4-0.3-0.7-0.7-0.9-1.2c-0.8-1.9-0.4-4.1,0.3-6c0.7-2,2.9-4.8,5.3-2.9c0.8,0.6,1.2,1.4,1.5,2.3
	C99.6,142.8,99.9,144.4,99.7,146z M109.6,147.6c-0.2,0.5-0.5,0.8-1,1.1c-0.4,0.3-1,0.6-1.5,0.7c-0.8,0.2-1.5,0.4-2.3,0.3
	c-1-0.2-1.8-0.9-2.2-1.7c-0.5-0.8-0.6-1.8-0.6-2.8c0-1.6,0.2-3.2,0.9-4.6c0.4-0.9,0.8-1.7,1.6-2.2c2.5-1.8,4.5,1.1,5.1,3.2
	C110.3,143.5,110.5,145.7,109.6,147.6z M109.2,62.7c-2,4.2-4.9,8.1-9.1,9.9c-1.1,0.5-2.1,0.6-3.3,0.4c-1.1-0.2-2.5-0.5-3.6-1
	c-1.5-0.8-3.1-1.6-4.2-3c-1.3-1.7-1.6-4.1-1.1-6.2c0.5-2.1,1.7-3.9,3.1-5.5c2.3-2.7,5.2-4.9,8.4-6.4c1.9-0.9,3.9-1.5,6-1.2
	C112.2,50.7,111.2,58.4,109.2,62.7z M185.7,33.5c0.3-1.4,1-2.7,1.8-3.8c0.5-0.7,1.1-1.2,1.9-1.5c2.5-0.9,3.6,2,3.6,3.9
	c0.1,1.8-0.3,3.8-1.4,5.1c-0.3,0.4-0.6,0.6-1.1,0.7c-0.4,0.2-1,0.3-1.4,0.3c-0.7,0-1.4,0-2-0.3c-0.8-0.4-1.3-1.2-1.5-2
	C185.4,35.2,185.5,34.3,185.7,33.5z M177.7,21.4c0.4-0.9,0.9-1.7,1.6-2.2c2.5-1.8,4.5,1.1,5.1,3.2c0.6,2,0.9,4.2,0,6
	c-0.2,0.5-0.5,0.8-1,1.1c-0.4,0.3-1,0.6-1.5,0.7c-0.8,0.2-1.5,0.4-2.3,0.3c-1-0.2-1.8-0.9-2.2-1.7c-0.5-0.8-0.6-1.8-0.6-2.8
	C176.8,24.5,177.1,22.9,177.7,21.4z M167.1,22.7c0.7-2,2.9-4.8,5.3-2.9c0.8,0.6,1.2,1.4,1.5,2.3c0.5,1.5,0.8,3.1,0.6,4.7
	c-0.1,0.9-0.3,1.9-0.8,2.7c-0.5,0.8-1.3,1.5-2.3,1.6c-0.8,0.1-1.5-0.1-2.3-0.4c-0.5-0.2-1-0.5-1.5-0.8c-0.4-0.3-0.7-0.7-0.9-1.2
	C166.1,26.8,166.4,24.6,167.1,22.7z M161.7,39.6c-0.5-0.1-0.8-0.3-1.2-0.7c-1.3-1.3-1.8-3.2-1.8-5c-0.1-1.9,0.7-4.9,3.3-4.2
	c0.8,0.2,1.5,0.8,2,1.4c1,1,1.7,2.3,2.1,3.6c0.3,0.8,0.4,1.6,0.3,2.5c-0.1,0.8-0.6,1.7-1.3,2.1c-0.6,0.3-1.3,0.4-2,0.5
	C162.7,39.8,162.1,39.7,161.7,39.6z M182.9,54.8c-1.1-0.2-2.4-1.1-3.1-2.4c0,0-3,5.7-7.9,0.4c0,0,0.1,2.6-4.1,2.9
	c-2,0.2-4.1-2.3-4.3-3.9c-0.2-3.1,1-7,3.6-9.6c1.3-1.3,2.2-3.1,2.9-4.8c0.3-0.7,0.7-1.5,1.3-2.2c2.2-2.8,6.4-3.2,9-0.7
	c0.4,0.3,0.7,0.7,1.1,1.2c0.8,1,1.3,2.1,1.7,3.2c0.3,0.9,1,2.4,2.2,3.5c0,0,2.6,2.6,3.5,6.1C189.7,52.1,186.6,55.6,182.9,54.8z
	 M201.8,134.6c-0.8,1.1-2.1,1.8-3.4,2.4c-0.8,0.4-1.9,0.7-2.9,0.8c-1,0.1-1.8,0-2.7-0.3c-3.4-1.4-5.8-4.6-7.3-8
	c-1.6-3.5-2.4-9.7,3-10.4c1.7-0.2,3.3,0.3,4.8,1c2.6,1.2,4.9,3,6.8,5.1c1.1,1.3,2.1,2.7,2.5,4.4C203,131.3,202.8,133.2,201.8,134.6z
	 M210.3,109.5c-0.3,1.9-1.4,3.8-3.1,4.8c-1.4,0.8-3,0.9-4.6,1c-1,0.1-2.3-0.1-3.3-0.4c-1.1-0.3-1.8-0.7-2.6-1.5
	c-2.9-3-4-7.3-4.2-11.5c-0.2-4.3,1.7-11.2,7.6-9.6c1.8,0.5,3.4,1.8,4.6,3.2c2.2,2.4,3.8,5.2,4.8,8.3
	C210.3,105.7,210.7,107.6,210.3,109.5z M228.5,102.1c-0.6,0.9-1.4,1.9-2.2,2.5c-1.2,1-2.5,1.9-4.1,2.3c-1.9,0.4-4-0.3-5.5-1.5
	c-1.5-1.2-2.5-2.9-3.3-4.7c-1.3-2.9-2-6.2-2-9.4c0-1.9,0.3-3.8,1.3-5.5c3.3-5.2,9.3-1.4,12.1,2c2.7,3.2,4.8,7.2,4.6,11.3
	C229.4,100.4,229.1,101.2,228.5,102.1z M249.9,110.2c-0.3,0.9-0.7,1.6-1.5,2.2c-0.7,0.6-1.6,1.3-2.5,1.6c-1.3,0.5-2.6,1.1-4,1
	c-1.7-0.1-3.3-1.2-4.3-2.6c-1-1.4-1.5-3.1-1.7-4.8c-0.4-2.8-0.3-5.7,0.5-8.5c0.5-1.6,1.2-3.2,2.4-4.3c4-3.6,8.2,1,9.8,4.5
	C250.2,102.9,251.1,106.7,249.9,110.2z M292.3,56.9c-2.2-0.9-4.5-2.9-5.3-5.9c0,0-8,10.3-16-2c0,0-0.6,5.2-9.3,4.4
	c-4-0.4-7.5-6.1-7.2-9.3c0.6-6.3,4.5-13.6,10.5-17.9c3.1-2.2,5.4-5.4,7.5-8.5c0.8-1.3,1.9-2.6,3.3-3.9c5.4-5,13.8-4.2,18.2,1.6
	c0.6,0.8,1.2,1.7,1.7,2.8c1.2,2.2,1.9,4.6,2.3,7c0.3,2,1.2,5.2,3.2,7.7c0,0,4.2,6.2,4.8,13.4C306.8,54,299.3,59.8,292.3,56.9z
	 M320.5,15.2c-0.5,3.7-1.8,7.4-4.7,9.8c-0.8,0.6-1.5,0.9-2.4,1.1c-0.9,0.1-2,0.2-3,0c-1.4-0.2-2.8-0.5-3.9-1.3
	c-1.4-1-2.2-2.8-2.3-4.5c-0.1-1.7,0.4-3.4,1.1-4.9c1.2-2.6,2.8-5,5-6.9c1.2-1.1,2.7-2.1,4.3-2.4C320,5.2,321.1,11.3,320.5,15.2z
	 M338.8,132.4c-0.1,0.8-0.2,1.7-0.7,2.4c-0.4,0.7-1.2,1.3-2,1.4c-0.7,0.1-1.4-0.1-2-0.3c-0.4-0.1-0.9-0.4-1.3-0.7
	c-0.4-0.3-0.6-0.6-0.8-1c-0.7-1.7-0.4-3.6,0.2-5.3c0.7-1.8,2.6-4.2,4.7-2.6c0.7,0.5,1.1,1.3,1.3,2
	C338.7,129.5,338.9,131,338.8,132.4z M350.8,123.7c-0.1,1.6-0.5,3.2-1.2,4.6c-0.4,0.8-1,1.7-1.8,2.2c-0.8,0.6-1.8,0.8-2.7,0.6
	c-0.8-0.2-1.4-0.7-2-1.2c-0.4-0.3-0.8-0.9-1-1.3c-0.3-0.5-0.4-0.9-0.4-1.4c0-2.1,1.2-4,2.6-5.5c1.5-1.6,4.5-3.3,6-0.7
	C350.7,121.8,350.8,122.7,350.8,123.7z M761.4,24.8c0.3-1.4,1-2.7,1.8-3.8c0.5-0.7,1.1-1.2,1.9-1.5c2.5-0.9,3.6,2,3.6,3.9
	c0.1,1.8-0.3,3.8-1.4,5.1c-0.3,0.4-0.6,0.6-1.1,0.7c-0.4,0.2-1,0.3-1.4,0.3c-0.7,0-1.4,0-2-0.3c-0.8-0.4-1.3-1.2-1.5-2
	C761.1,26.5,761.2,25.6,761.4,24.8z M753.3,12.7c0.4-0.9,0.8-1.7,1.6-2.2c2.5-1.7,4.5,1.1,5.1,3.2c0.6,2,0.8,4.2,0,6
	c-0.2,0.5-0.5,0.8-1,1.1c-0.4,0.3-1,0.6-1.5,0.7c-0.8,0.2-1.5,0.4-2.3,0.3c-1-0.2-1.8-0.9-2.2-1.7c-0.5-0.8-0.6-1.8-0.6-2.8
	C752.4,15.8,752.7,14.2,753.3,12.7z M742.8,14c0.7-2,2.9-4.8,5.3-2.9c0.8,0.6,1.2,1.4,1.5,2.3c0.5,1.5,0.8,3.1,0.6,4.7
	c-0.1,0.9-0.3,1.9-0.8,2.7c-0.5,0.8-1.3,1.5-2.3,1.6c-0.8,0.1-1.5-0.1-2.3-0.4c-0.5-0.2-1-0.5-1.5-0.8c-0.4-0.3-0.7-0.7-0.9-1.2
	C741.7,18.1,742.1,15.9,742.8,14z M655.1,21.8c1.7-3.6,4.2-6.9,7.3-9.5c1.8-1.5,3.8-2.8,6.2-3.2c7.5-1.1,8.8,7.6,7.9,13
	c-0.9,5.1-2.9,10.3-7,13.6c-1.1,0.9-2.1,1.2-3.5,1.4c-1.3,0.2-2.9,0.2-4.2,0c-1.9-0.4-3.9-0.8-5.5-2c-2-1.5-3-4-3-6.4
	C653.4,26.3,654.1,24,655.1,21.8z M605.5,18.7c2-4.4,7.2-10.1,12.2-5.6c1.5,1.4,2.4,3.4,3,5.4c1,3.4,1.2,7,0.6,10.5
	c-0.3,2.1-0.9,4.2-2.2,5.9c-1.2,1.7-3.2,3.1-5.4,3.2c-1.7,0.1-3.4-0.6-5-1.2c-1.1-0.4-2.2-1.3-3.1-2c-0.9-0.8-1.5-1.6-1.8-2.8
	C602.5,27.7,603.6,22.9,605.5,18.7z M549.8,109.6c0.4-0.9,0.8-1.7,1.6-2.2c2.5-1.8,4.5,1.1,5.1,3.2c0.6,2,0.8,4.2,0,6
	c-0.2,0.5-0.5,0.8-1,1.1c-0.4,0.3-1,0.6-1.5,0.7c-0.8,0.2-1.5,0.4-2.3,0.3c-1-0.2-1.8-0.9-2.2-1.7c-0.5-0.8-0.6-1.8-0.6-2.8
	C548.9,112.6,549.2,111,549.8,109.6z M539.3,110.8c0.7-2,2.9-4.8,5.3-2.9c0.8,0.6,1.2,1.4,1.5,2.3c0.5,1.5,0.8,3.1,0.6,4.7
	c-0.1,0.9-0.3,1.9-0.8,2.7c-0.5,0.8-1.3,1.5-2.3,1.6c-0.8,0.1-1.5-0.1-2.3-0.4c-0.5-0.2-1-0.5-1.5-0.8c-0.4-0.3-0.7-0.7-0.9-1.2
	C538.2,115,538.6,112.8,539.3,110.8z M470.6,38.2c0.5-2.2,1.2-4.5,2.8-6.1c5.1-5.3,11.3,0.6,13.8,5.2c2.4,4.4,4,9.6,2.8,14.5
	c-0.3,1.3-0.8,2.2-1.8,3.2c-0.9,0.9-2.1,1.9-3.2,2.5c-1.7,0.8-3.5,1.7-5.4,1.7c-2.4,0-4.6-1.3-6.1-3c-1.5-1.8-2.3-4-2.8-6.3
	C469.8,46,469.8,42,470.6,38.2z M437.1,22.3c4-7.3,12.5-2.8,16.6,1.5c4,4.1,7.2,9.3,7.4,15c0,1.5-0.2,2.6-1,4
	c-0.7,1.2-1.7,2.7-2.8,3.6c-1.6,1.4-3.3,2.9-5.3,3.5c-2.6,0.8-5.4,0-7.6-1.5c-2.2-1.5-3.7-3.7-5-6c-2.1-3.9-3.3-8.2-3.6-12.6
	C435.7,27.3,435.9,24.6,437.1,22.3z M355.1,134.3c-0.8-0.1-1.6-0.2-2.2-0.6c-0.8-0.5-1.3-1.5-1.4-2.4c-0.1-1,0.1-1.9,0.5-2.8
	c0.6-1.5,1.5-2.8,2.6-4c0.7-0.7,1.4-1.2,2.4-1.4c2.9-0.7,3.7,2.8,3.5,4.9c-0.2,2.1-0.8,4.2-2.3,5.6c-0.4,0.4-0.8,0.6-1.3,0.7
	C356.2,134.3,355.6,134.4,355.1,134.3z M364.7,140.3c-0.6,1.7-1.7,3.4-3.3,4.2c-0.4,0.2-0.8,0.3-1.3,0.3c-0.5,0-1-0.1-1.4-0.3
	c-0.6-0.3-1.3-0.5-1.7-1.1c-0.6-0.6-0.8-1.6-0.6-2.4c0.1-0.8,0.6-1.6,1-2.3c0.8-1.1,1.9-2.1,3.1-2.8c0.7-0.4,1.5-0.7,2.4-0.7
	C365.5,135.4,365.3,138.5,364.7,140.3z M426.8,89.4c-1,1.6-2.7,2.6-4.3,3.6c-1.1,0.7-2.6,1.1-3.8,1.4c-1.3,0.3-2.4,0.2-3.6-0.2
	c-4.8-1.6-8.3-5.7-10.7-10.1c-2.5-4.6-4.2-13,3.1-14.4c2.2-0.5,4.6,0.1,6.7,0.9c3.6,1.4,7,3.6,9.7,6.3c1.6,1.6,3.1,3.5,3.8,5.8
	C428.3,84.8,428.2,87.5,426.8,89.4z M432.4,61.4c-1.8,1.2-4,1.5-6.1,1.9c-1.4,0.2-3.2,0.1-4.6-0.2c-1.5-0.3-2.6-0.8-3.7-1.8
	c-4.3-3.8-6.2-9.6-6.8-15.2c-0.7-5.9,1.3-15.3,9.5-13.7c2.5,0.5,4.7,2.1,6.6,3.8c3.2,3,5.7,6.7,7.4,10.8c1,2.4,1.7,5,1.5,7.7
	C435.9,57.2,434.7,59.9,432.4,61.4z M489.9,105.9c-3.1,0.8-7.3,0.4-10.6-2.2c0,0-0.5,17.8-19.1,10.7c0,0,3.5,6.2-6.6,12.4
	c-4.7,2.9-13.1-0.6-15.4-4.5c-4.4-7.5-6-18.5-2.9-28.1c1.6-5,1.6-10.3,1.4-15.5c-0.1-2.1,0-4.5,0.5-7C439.2,62.1,449,56,458.5,59
	c1.3,0.4,2.7,0.9,4.1,1.6c3,1.5,5.8,3.5,8.2,5.9c2,1.9,5.5,4.8,9.8,5.9c0,0,9.6,3.4,16,10.8C503.5,90.9,500,103.3,489.9,105.9z
	 M533.9,127.7c-0.5-0.1-0.8-0.3-1.2-0.6c-1.3-1.3-1.8-3.2-1.8-5c-0.1-1.9,0.7-4.9,3.3-4.2c0.8,0.2,1.5,0.8,2,1.4
	c1,1,1.7,2.3,2.1,3.6c0.3,0.8,0.4,1.6,0.3,2.5c-0.1,0.8-0.6,1.7-1.3,2.1c-0.6,0.4-1.3,0.4-2,0.5
	C534.9,127.9,534.3,127.8,533.9,127.7z M555.1,143c-1.1-0.2-2.4-1-3.1-2.4c0,0-3,5.7-7.9,0.4c0,0,0.1,2.6-4.1,2.9
	c-2,0.2-4.1-2.3-4.3-3.9c-0.2-3.1,1-7,3.6-9.6c1.3-1.4,2.2-3.1,2.9-4.8c0.3-0.7,0.7-1.4,1.3-2.2c2.2-2.8,6.4-3.2,9-0.7
	c0.4,0.3,0.7,0.7,1.1,1.2c0.8,1,1.3,2.1,1.7,3.2c0.3,0.9,1,2.4,2.2,3.5c0,0,2.6,2.6,3.5,6.1C561.9,140.3,558.8,143.7,555.1,143z
	 M563.8,125.4c-0.3,0.4-0.6,0.6-1.1,0.7c-0.4,0.1-1,0.3-1.4,0.3c-0.7,0-1.4,0-2-0.3c-0.8-0.4-1.3-1.2-1.5-2
	c-0.2-0.8-0.1-1.7,0.1-2.5c0.3-1.4,1-2.7,1.8-3.8c0.5-0.7,1.1-1.2,1.9-1.5c2.5-0.9,3.6,2,3.6,3.9C565.3,122.1,565,124,563.8,125.4z
	 M656.4,85.9c-2,9.2-13,13.4-20.4,7.4c-2.3-1.8-4.3-5.1-4.2-8.9c0,0-13.3,9.2-18.2-8.1c0,0-2.7,5.9-12.7,1.9
	c-4.7-1.9-6.7-10-5.1-13.7c3-7.3,10.3-14.5,19-17.4c4.5-1.5,8.4-4.4,12.1-7.4c1.5-1.2,3.3-2.4,5.4-3.5c8.2-3.9,18,0,21,8.6
	c0.4,1.2,0.8,2.5,1,3.9c0.6,3,0.6,6.1,0.2,9.2c-0.3,2.5-0.5,6.6,1,10.4C655.6,68.3,658.3,77.2,656.4,85.9z M667.3,147.7
	c-0.1,0.8-0.6,1.7-1.3,2.1c-0.6,0.4-1.3,0.4-2,0.5c-0.5,0-1,0-1.5-0.2c-0.5-0.1-0.8-0.3-1.2-0.6c-1.3-1.3-1.8-3.2-1.8-5
	c-0.1-1.9,0.7-4.9,3.3-4.2c0.8,0.2,1.5,0.8,2,1.4c1,1,1.7,2.3,2.1,3.6C667.3,146,667.5,146.9,667.3,147.7z M675.4,137.3
	c-0.1,0.9-0.3,1.9-0.8,2.7c-0.5,0.8-1.3,1.5-2.3,1.6c-0.8,0.1-1.5-0.1-2.3-0.4c-0.5-0.2-1-0.5-1.5-0.8c-0.4-0.3-0.7-0.7-0.9-1.2
	c-0.8-1.9-0.5-4.1,0.3-6c0.7-2,2.9-4.8,5.3-2.9c0.8,0.6,1.2,1.4,1.5,2.3C675.3,134.1,675.5,135.7,675.4,137.3z M685.3,138.9
	c-0.2,0.5-0.5,0.8-1,1.1c-0.4,0.3-1,0.6-1.5,0.7c-0.8,0.2-1.5,0.4-2.3,0.3c-1-0.2-1.8-0.9-2.2-1.7c-0.5-0.8-0.6-1.8-0.6-2.8
	c0-1.6,0.2-3.2,0.9-4.6c0.4-0.9,0.8-1.7,1.6-2.2c2.5-1.7,4.5,1.1,5.1,3.1C685.9,134.8,686.2,137,685.3,138.9z M684.9,54
	c-2,4.2-4.9,8.1-9.1,9.9c-1.1,0.5-2.1,0.6-3.3,0.4c-1.1-0.2-2.5-0.5-3.5-1c-1.5-0.8-3.1-1.6-4.2-3c-1.3-1.7-1.6-4.1-1.1-6.1
	c0.5-2.1,1.7-3.9,3.1-5.5c2.3-2.7,5.2-4.9,8.4-6.4c1.9-0.9,4-1.5,6-1.2C687.8,42,686.9,49.7,684.9,54z M692.5,147.8
	c-0.3,0.4-0.6,0.6-1.1,0.7c-0.4,0.1-1,0.3-1.4,0.3c-0.7,0-1.4,0-2-0.3c-0.8-0.4-1.3-1.1-1.5-2s-0.1-1.7,0.1-2.5
	c0.3-1.4,1-2.7,1.8-3.8c0.5-0.7,1.1-1.2,1.9-1.5c2.5-0.9,3.6,2,3.6,3.9C694,144.5,693.7,146.4,692.5,147.8z M737.4,30.9
	c-0.5-0.1-0.8-0.3-1.2-0.6c-1.3-1.3-1.8-3.2-1.8-5c-0.1-1.9,0.7-4.9,3.3-4.2c0.8,0.2,1.5,0.8,2,1.4c1,1,1.7,2.3,2.1,3.6
	c0.3,0.8,0.4,1.7,0.3,2.5c-0.1,0.8-0.6,1.7-1.3,2.1c-0.6,0.4-1.3,0.4-2,0.5C738.4,31.1,737.8,31,737.4,30.9z M758.6,46.1
	c-1.1-0.2-2.4-1-3.1-2.4c0,0-3,5.7-7.9,0.4c0,0,0.1,2.6-4.1,2.9c-2,0.2-4.1-2.3-4.3-3.9c-0.2-3.1,1-7,3.6-9.6
	c1.3-1.3,2.2-3.1,2.9-4.8c0.3-0.7,0.7-1.4,1.3-2.2c2.2-2.8,6.4-3.2,9-0.7c0.4,0.3,0.7,0.7,1.1,1.2c0.8,1,1.3,2.1,1.7,3.2
	c0.3,0.9,1,2.4,2.2,3.5c0,0,2.6,2.7,3.5,6.1C765.4,43.4,762.2,46.8,758.6,46.1z M777.4,125.9c-0.8,1.1-2.1,1.8-3.4,2.4
	c-0.8,0.4-1.9,0.7-2.8,0.8c-1,0.1-1.8,0-2.7-0.3c-3.4-1.4-5.8-4.6-7.3-8c-1.6-3.5-2.4-9.7,3-10.4c1.7-0.2,3.3,0.3,4.8,1
	c2.6,1.2,4.9,3,6.8,5.1c1.1,1.3,2.1,2.7,2.5,4.4S778.5,124.5,777.4,125.9z M786,100.8c-0.3,1.9-1.4,3.8-3.1,4.8
	c-1.4,0.8-3,0.9-4.6,1c-1,0.1-2.3-0.1-3.3-0.4c-1.1-0.3-1.8-0.7-2.6-1.5c-2.9-3-4-7.3-4.2-11.5c-0.2-4.3,1.7-11.2,7.6-9.6
	c1.8,0.5,3.4,1.8,4.6,3.2c2.2,2.4,3.8,5.2,4.8,8.3C786,97,786.3,98.9,786,100.8z M804.2,93.4c-0.6,0.9-1.4,1.9-2.2,2.5
	c-1.2,1-2.5,1.9-4.1,2.3c-1.9,0.4-4-0.3-5.5-1.5c-1.5-1.2-2.5-2.9-3.3-4.7c-1.3-3-2-6.2-2-9.4c0-1.9,0.3-3.8,1.3-5.5
	c3.3-5.1,9.3-1.4,12.1,2c2.7,3.2,4.8,7.2,4.6,11.3C805.1,91.7,804.8,92.5,804.2,93.4z M825.6,101.5c-0.3,0.9-0.7,1.6-1.5,2.2
	c-0.7,0.6-1.6,1.3-2.5,1.6c-1.3,0.5-2.6,1.1-4,1c-1.7-0.1-3.3-1.2-4.3-2.5c-1-1.4-1.5-3.1-1.7-4.8c-0.4-2.8-0.3-5.7,0.5-8.5
	c0.5-1.6,1.2-3.2,2.4-4.3c4-3.6,8.2,1,9.8,4.5C825.9,94.2,826.8,98,825.6,101.5z M867.9,48.2c-2.2-0.9-4.5-2.9-5.3-5.9
	c0,0-8,10.3-16-2c0,0-0.6,5.2-9.3,4.4c-4-0.4-7.5-6.1-7.2-9.3c0.6-6.3,4.5-13.6,10.5-17.8c3.1-2.2,5.4-5.4,7.5-8.6
	c0.8-1.3,1.9-2.6,3.3-3.9c5.4-5,13.8-4.2,18.2,1.6c0.6,0.8,1.2,1.7,1.7,2.8c1.2,2.2,1.9,4.6,2.3,7c0.3,2,1.2,5.2,3.2,7.7
	c0,0,4.2,6.2,4.8,13.3C882.5,45.3,875,51.1,867.9,48.2z M1159.7,22.2c0.3-1.4,1-2.7,1.8-3.8c0.5-0.6,1.1-1.2,1.9-1.5
	c2.5-0.9,3.6,2,3.6,3.9c0.1,1.8-0.3,3.8-1.4,5.2c-0.3,0.4-0.6,0.6-1.1,0.7c-0.4,0.2-1,0.3-1.4,0.3c-0.7,0-1.4,0-2-0.3
	c-0.8-0.4-1.3-1.2-1.5-2C1159.4,23.9,1159.5,23,1159.7,22.2z M1151.6,10.2c0.4-0.9,0.8-1.7,1.6-2.2c2.5-1.8,4.5,1.1,5.1,3.2
	c0.6,2,0.8,4.2,0,6c-0.2,0.5-0.5,0.8-1,1.1c-0.4,0.3-1,0.6-1.5,0.7c-0.8,0.2-1.5,0.4-2.3,0.3c-1-0.2-1.8-0.9-2.2-1.7
	s-0.6-1.8-0.6-2.8C1150.7,13.2,1151,11.6,1151.6,10.2z M1141.1,11.4c0.7-2,2.9-4.8,5.3-2.9c0.8,0.6,1.2,1.4,1.5,2.3
	c0.5,1.5,0.8,3.1,0.6,4.7c-0.1,0.9-0.3,1.9-0.8,2.7s-1.3,1.5-2.3,1.6c-0.8,0.1-1.5-0.1-2.3-0.4c-0.5-0.2-1-0.5-1.4-0.8
	c-0.4-0.3-0.7-0.7-0.9-1.2C1140,15.6,1140.4,13.4,1141.1,11.4z M1046.2,29.5c0.5-2.2,1.2-4.5,2.8-6.1c5.1-5.3,11.3,0.6,13.8,5.2
	c2.4,4.4,4,9.6,2.8,14.5c-0.3,1.3-0.8,2.2-1.8,3.2c-0.9,0.9-2.1,1.9-3.2,2.5c-1.7,0.8-3.5,1.7-5.4,1.7c-2.4,0-4.6-1.3-6.1-3
	c-1.5-1.8-2.3-4-2.8-6.3C1045.5,37.3,1045.4,33.3,1046.2,29.5z M1012.8,13.6c4-7.3,12.5-2.8,16.6,1.5c4,4.1,7.2,9.3,7.4,15
	c0,1.5-0.2,2.6-1,4c-0.7,1.2-1.7,2.7-2.8,3.6c-1.6,1.4-3.3,2.9-5.3,3.5c-2.6,0.8-5.4,0-7.6-1.5s-3.7-3.7-5-6
	c-2.1-3.9-3.3-8.2-3.6-12.6C1011.4,18.6,1011.6,15.9,1012.8,13.6z M919.9,112.9c1.5-1.6,4.5-3.3,6-0.7c0.5,0.8,0.5,1.8,0.5,2.7
	c-0.1,1.6-0.5,3.2-1.2,4.6c-0.4,0.8-1,1.7-1.8,2.2c-0.8,0.6-1.8,0.8-2.7,0.6c-0.8-0.2-1.4-0.7-2-1.2c-0.4-0.3-0.8-0.9-1-1.3
	c-0.3-0.5-0.4-0.9-0.4-1.4C917.4,116.3,918.5,114.4,919.9,112.9z M907.9,120c0.7-1.8,2.6-4.2,4.7-2.6c0.7,0.5,1.1,1.3,1.3,2
	c0.5,1.3,0.7,2.8,0.6,4.2c-0.1,0.8-0.2,1.7-0.7,2.4c-0.4,0.7-1.2,1.3-2,1.4c-0.7,0.1-1.4-0.1-2-0.3c-0.4-0.1-0.9-0.4-1.3-0.7
	c-0.4-0.3-0.6-0.6-0.8-1C907,123.7,907.2,121.8,907.9,120z M930.1,145.1c-0.5,3.7-4.8,5.7-7.8,3.6c-1-0.7-1.8-1.9-1.9-3.4
	c0,0-5,4.1-7.5-2.7c0,0-0.9,2.4-5,1.1c-1.9-0.6-2.9-3.7-2.4-5.3c1-3,3.6-6,7-7.4c1.7-0.7,3.2-2,4.5-3.3c0.5-0.5,1.2-1.1,2-1.5
	c3.1-1.8,7.1-0.5,8.6,2.8c0.2,0.5,0.4,1,0.5,1.5c0.3,1.2,0.4,2.4,0.3,3.6c-0.1,1,0,2.6,0.7,4.1C929.2,138.1,930.6,141.6,930.1,145.1
	z M930.8,125.6c-0.8-0.1-1.6-0.2-2.2-0.6c-0.8-0.5-1.3-1.5-1.4-2.4c-0.1-1,0.1-1.9,0.5-2.8c0.6-1.5,1.5-2.9,2.6-4
	c0.7-0.7,1.4-1.2,2.4-1.4c2.9-0.7,3.7,2.8,3.5,4.9c-0.2,2.1-0.8,4.2-2.3,5.6c-0.4,0.4-0.8,0.6-1.3,0.7
	C931.9,125.6,931.3,125.7,930.8,125.6z M940.3,131.6c-0.6,1.7-1.7,3.4-3.3,4.2c-0.4,0.2-0.8,0.3-1.3,0.3c-0.5,0-1-0.1-1.4-0.3
	c-0.6-0.3-1.3-0.6-1.7-1.1c-0.6-0.6-0.8-1.6-0.6-2.4c0.1-0.8,0.6-1.6,1-2.3c0.8-1.1,1.9-2.1,3.1-2.8c0.7-0.4,1.5-0.7,2.3-0.7
	C941.2,126.7,941,129.8,940.3,131.6z M1002.5,80.7c-1.1,1.6-2.7,2.6-4.3,3.6c-1.1,0.7-2.6,1.1-3.8,1.4c-1.3,0.3-2.4,0.2-3.6-0.2
	c-4.8-1.6-8.3-5.7-10.7-10.1c-2.5-4.6-4.2-13,3.1-14.4c2.2-0.5,4.6,0.1,6.7,0.9c3.6,1.4,7,3.6,9.7,6.3c1.6,1.6,3.1,3.5,3.8,5.8
	C1003.9,76.1,1003.8,78.7,1002.5,80.7z M1008.1,52.7c-1.8,1.2-4,1.5-6.1,1.9c-1.4,0.2-3.2,0.1-4.6-0.2c-1.5-0.3-2.6-0.8-3.7-1.8
	c-4.3-3.8-6.2-9.6-6.8-15.2c-0.6-5.9,1.3-15.3,9.5-13.7c2.6,0.5,4.7,2.1,6.6,3.8c3.2,3,5.7,6.7,7.4,10.8c1,2.4,1.7,5,1.5,7.7
	S1010.3,51.2,1008.1,52.7z M1065.6,97.2c-3.1,0.8-7.3,0.4-10.6-2.2c0,0-0.6,17.8-19.1,10.7c0,0,3.5,6.2-6.6,12.4
	c-4.7,2.9-13.1-0.7-15.4-4.5c-4.4-7.5-6-18.5-2.9-28.1c1.6-4.9,1.6-10.3,1.4-15.5c-0.1-2.1,0-4.5,0.5-7c1.9-9.8,11.8-15.8,21.3-12.9
	c1.3,0.4,2.7,0.9,4.1,1.6c3.1,1.5,5.8,3.5,8.2,5.8c2,1.9,5.5,4.8,9.8,5.9c0,0,9.6,3.4,16.1,10.8
	C1079.1,82.2,1075.6,94.6,1065.6,97.2z M1135.7,28.3c-0.5-0.1-0.8-0.3-1.2-0.7c-1.3-1.3-1.8-3.2-1.8-5c-0.1-1.9,0.7-4.9,3.3-4.2
	c0.8,0.2,1.5,0.8,2,1.4c0.9,1,1.7,2.3,2.1,3.6c0.3,0.8,0.4,1.7,0.3,2.5c-0.1,0.8-0.6,1.7-1.3,2.1c-0.6,0.3-1.3,0.4-2,0.5
	C1136.7,28.5,1136.1,28.4,1135.7,28.3z M1156.9,43.5c-1.1-0.2-2.4-1-3.1-2.4c0,0-3,5.7-7.9,0.4c0,0,0.1,2.6-4.1,2.9
	c-2,0.2-4.1-2.3-4.3-3.9c-0.2-3.1,1-7,3.6-9.6c1.3-1.3,2.2-3.1,3-4.8c0.3-0.7,0.7-1.5,1.3-2.2c2.2-2.8,6.4-3.2,9-0.7
	c0.4,0.3,0.7,0.7,1.1,1.2c0.8,1,1.3,2.1,1.7,3.2c0.3,0.9,1,2.4,2.2,3.5c0,0,2.6,2.7,3.5,6.1C1163.7,40.9,1160.5,44.3,1156.9,43.5z
	 M1175.7,123.3c-0.8,1.1-2.1,1.8-3.4,2.4c-0.8,0.4-1.9,0.7-2.8,0.8c-1,0.1-1.8,0-2.7-0.3c-3.4-1.4-5.8-4.6-7.3-8
	c-1.6-3.5-2.4-9.7,3-10.4c1.7-0.2,3.3,0.3,4.8,1c2.6,1.2,4.9,3,6.8,5.1c1.1,1.3,2.1,2.7,2.5,4.4C1177,120.1,1176.8,122,1175.7,123.3
	z M1184.3,98.3c-0.3,1.9-1.4,3.8-3.1,4.8c-1.4,0.8-3,0.9-4.6,1c-1,0.1-2.3-0.1-3.3-0.4c-1.1-0.3-1.8-0.7-2.6-1.5
	c-2.9-3-4-7.3-4.2-11.5c-0.2-4.3,1.7-11.2,7.6-9.6c1.8,0.5,3.4,1.8,4.6,3.2c2.2,2.4,3.8,5.2,4.8,8.3
	C1184.2,94.5,1184.6,96.4,1184.3,98.3z M1202.5,90.9c-0.6,0.9-1.4,1.9-2.2,2.5c-1.2,1-2.6,1.9-4.1,2.3c-1.9,0.4-4-0.3-5.5-1.5
	c-1.5-1.2-2.5-2.9-3.3-4.7c-1.3-3-2-6.2-2-9.4c0-1.9,0.3-3.8,1.3-5.5c3.3-5.1,9.3-1.4,12.1,2c2.7,3.2,4.8,7.2,4.6,11.3
	C1203.4,89.1,1203.1,89.9,1202.5,90.9z M1223.9,99c-0.3,0.9-0.7,1.6-1.5,2.2c-0.7,0.6-1.6,1.3-2.5,1.6c-1.3,0.5-2.6,1.1-4,1
	c-1.7-0.1-3.3-1.2-4.3-2.5s-1.5-3.1-1.7-4.8c-0.4-2.8-0.3-5.7,0.5-8.5c0.4-1.6,1.2-3.2,2.4-4.3c4-3.6,8.2,1,9.8,4.5
	C1224.2,91.6,1225,95.5,1223.9,99z M1318.2,110.4c1.5-1.6,4.5-3.3,6-0.7c0.5,0.8,0.6,1.8,0.5,2.7c-0.1,1.6-0.5,3.2-1.2,4.6
	c-0.4,0.8-1,1.6-1.8,2.2c-0.8,0.6-1.8,0.9-2.7,0.6c-0.8-0.2-1.4-0.7-2-1.2c-0.4-0.3-0.8-0.8-1-1.3c-0.3-0.5-0.4-0.9-0.4-1.4
	C1315.7,113.8,1316.8,111.9,1318.2,110.4z M1306.2,117.5c0.6-1.8,2.5-4.2,4.7-2.6c0.7,0.5,1.1,1.3,1.3,2c0.5,1.3,0.7,2.8,0.6,4.2
	c-0.1,0.8-0.2,1.7-0.7,2.4c-0.4,0.7-1.2,1.3-2,1.4c-0.7,0.1-1.4-0.1-2-0.3c-0.4-0.1-0.9-0.4-1.3-0.7c-0.4-0.3-0.6-0.6-0.8-1
	C1305.3,121.2,1305.6,119.2,1306.2,117.5z M1328.4,142.5c-0.5,3.7-4.8,5.7-7.8,3.6c-1-0.7-1.8-1.9-1.9-3.4c0,0-5,4.1-7.5-2.7
	c0,0-0.9,2.4-4.9,1.1c-1.9-0.6-2.9-3.7-2.4-5.3c1-3,3.6-6,7-7.5c1.7-0.7,3.2-2,4.6-3.3c0.5-0.5,1.2-1.1,2-1.5
	c3.1-1.8,7.1-0.5,8.6,2.8c0.2,0.5,0.4,1,0.5,1.5c0.3,1.2,0.4,2.4,0.3,3.6c-0.1,1,0,2.6,0.7,4.1
	C1327.5,135.6,1328.9,139,1328.4,142.5z M1329.1,123.1c-0.8-0.1-1.6-0.2-2.2-0.6c-0.8-0.5-1.3-1.5-1.4-2.4c-0.1-1,0.1-1.9,0.5-2.8
	c0.6-1.5,1.4-2.8,2.6-4c0.7-0.7,1.4-1.2,2.4-1.4c2.9-0.7,3.7,2.8,3.5,4.9c-0.2,2.1-0.8,4.2-2.3,5.6c-0.4,0.4-0.8,0.6-1.3,0.7
	C1330.2,123.1,1329.6,123.2,1329.1,123.1z M1338.6,129.1c-0.6,1.7-1.7,3.4-3.3,4.2c-0.4,0.2-0.8,0.3-1.3,0.3c-0.5,0-1-0.1-1.4-0.3
	c-0.6-0.3-1.3-0.5-1.7-1.1c-0.6-0.6-0.8-1.6-0.6-2.4c0.1-0.8,0.6-1.6,1.1-2.3c0.8-1.1,1.9-2.1,3.1-2.8c0.7-0.4,1.5-0.7,2.3-0.7
	C1339.4,124.2,1339.3,127.3,1338.6,129.1z M1400.8,78.2c-1,1.6-2.7,2.6-4.3,3.6c-1.1,0.7-2.6,1.1-3.8,1.4c-1.3,0.3-2.4,0.2-3.6-0.2
	c-4.8-1.6-8.3-5.7-10.7-10.1c-2.5-4.6-4.2-13,3.1-14.4c2.2-0.5,4.6,0.1,6.7,0.9c3.6,1.4,7,3.6,9.7,6.3c1.6,1.6,3.1,3.5,3.8,5.8
	C1402.2,73.6,1402.1,76.2,1400.8,78.2z M1410.1,43.4c-0.2,2.6-1.5,5.3-3.7,6.8c-1.8,1.2-4,1.5-6.1,1.9c-1.4,0.2-3.2,0.1-4.6-0.2
	c-1.5-0.3-2.6-0.8-3.7-1.8c-4.3-3.8-6.2-9.6-6.8-15.2c-0.7-5.9,1.3-15.4,9.5-13.7c2.5,0.5,4.7,2.1,6.6,3.8c3.2,3,5.7,6.7,7.4,10.8
	C1409.6,38.1,1410.3,40.7,1410.1,43.4z M1426,38.7c-2.6,0.8-5.4,0-7.6-1.5c-2.2-1.5-3.7-3.7-5-6c-2.1-3.9-3.3-8.2-3.6-12.6
	c-0.2-2.6,0-5.2,1.3-7.5c4-7.3,12.5-2.8,16.6,1.5c4,4.1,7.2,9.3,7.4,15c0,1.5-0.2,2.6-1,4c-0.7,1.2-1.7,2.7-2.8,3.6
	C1429.7,36.6,1428,38,1426,38.7z"/>
<path d="M336.7,152h0.8c-0.1-0.2-0.2-0.5-0.3-0.7C337.2,151.3,337.1,151.6,336.7,152z"/>
<path class="st1" d="M57,32.2c1.4,1.4,2.8,2.8,4.7,3.5c2.3,0.8,4.9,0.3,7-1c2-1.3,3.6-3.2,4.8-5.2c2.1-3.4,3.4-7.3,3.9-11.3
	c0.3-2.3,0.2-4.8-0.8-6.9c-3.2-6.9-11.2-3.2-15.2,0.5c-3.8,3.5-7.1,8.1-7.5,13.3c-0.1,1.4,0.1,2.4,0.7,3.7
	C55.3,29.9,56.1,31.3,57,32.2z"/>
<path class="st1" d="M30,43.6c0.9,0.8,2,1.6,3.1,2c1.6,0.7,3.3,1.3,5,1.2c2.2-0.1,4.1-1.4,5.4-3.2c1.2-1.7,1.8-3.8,2.2-5.9
	c0.5-3.5,0.3-7.1-0.6-10.5c-0.6-2-1.4-4-3-5.4c-5-4.5-10.2,1.2-12.2,5.6c-1.9,4.2-3,9-1.6,13.4C28.6,42,29.1,42.8,30,43.6z"/>
<path class="st1" d="M105.5,49.8c-2.1-0.3-4.2,0.4-6,1.2c-3.2,1.5-6.1,3.7-8.4,6.4c-1.4,1.6-2.6,3.4-3.1,5.5
	c-0.5,2.1-0.2,4.4,1.1,6.2c1.1,1.4,2.7,2.2,4.2,3c1,0.5,2.4,0.9,3.6,1c1.2,0.2,2.2,0,3.3-0.4c4.2-1.8,7.2-5.7,9.1-9.9
	C111.2,58.4,112.2,50.7,105.5,49.8z"/>
<path class="st1" d="M90.4,45.9c1.4-0.2,2.4-0.6,3.5-1.5c4.1-3.2,6.1-8.4,7-13.5c0.9-5.3-0.4-14.1-7.9-13c-2.4,0.3-4.4,1.6-6.2,3.2
	c-3.1,2.6-5.5,5.8-7.3,9.5c-1,2.1-1.8,4.5-1.7,6.9c0.1,2.4,1.1,4.9,3,6.4c1.6,1.2,3.5,1.6,5.5,2C87.5,46.1,89.1,46,90.4,45.9z"/>
<path class="st1" d="M78.9,66.6c0.4-3.1,0.4-6.2-0.2-9.2c-0.3-1.4-0.6-2.7-1-3.9c-3-8.5-12.8-12.5-21-8.6c-2.1,1-3.9,2.2-5.4,3.5
	c-3.7,3-7.6,5.9-12.1,7.4c-8.8,2.9-16,10.1-19,17.4c-1.6,3.8,0.4,11.8,5.1,13.7C35.3,90.9,38,85,38,85c4.9,17.4,18.2,8.2,18.2,8.2
	c-0.1,3.8,1.9,7.1,4.2,8.9c7.4,5.9,18.4,1.8,20.4-7.5c1.9-8.7-0.8-17.6-0.8-17.6C78.4,73.2,78.6,69.1,78.9,66.6z"/>
<path class="st1" d="M204.8,95.6c-1.3-1.4-2.8-2.7-4.6-3.2c-5.9-1.6-7.8,5.2-7.6,9.6c0.2,4.2,1.2,8.5,4.2,11.5
	c0.8,0.8,1.5,1.2,2.6,1.5c1,0.3,2.3,0.5,3.3,0.4c1.6-0.1,3.2-0.3,4.6-1c1.7-1,2.8-2.9,3.1-4.8c0.3-1.9-0.1-3.9-0.7-5.7
	C208.7,100.8,207,98,204.8,95.6z"/>
<path class="st1" d="M200.2,125.2c-1.9-2.2-4.2-3.9-6.8-5.1c-1.5-0.7-3.2-1.2-4.8-1c-5.4,0.7-4.6,6.9-3,10.4c1.6,3.4,3.9,6.5,7.3,8
	c0.9,0.4,1.7,0.5,2.7,0.3c0.9-0.1,2-0.4,2.9-0.8c1.2-0.6,2.5-1.3,3.4-2.4c1.1-1.4,1.3-3.3,0.9-5C202.2,128,201.3,126.5,200.2,125.2z
	"/>
<path class="st1" d="M238.8,95c-1.2,1.1-2,2.7-2.4,4.3c-0.8,2.8-0.9,5.7-0.5,8.5c0.3,1.7,0.7,3.4,1.7,4.8c1,1.4,2.6,2.5,4.3,2.6
	c1.4,0.1,2.7-0.5,4-1c0.9-0.3,1.8-1,2.5-1.6c0.7-0.7,1.2-1.3,1.5-2.2c1.1-3.5,0.3-7.4-1.3-10.8C247.1,96,242.8,91.4,238.8,95z"/>
<path class="st1" d="M212.8,85.9c-1,1.6-1.3,3.6-1.3,5.5c0,3.2,0.7,6.5,2,9.4c0.8,1.8,1.8,3.4,3.3,4.7c1.5,1.2,3.6,1.9,5.5,1.5
	c1.5-0.3,2.8-1.3,4.1-2.3c0.8-0.6,1.6-1.6,2.2-2.5c0.6-1,0.9-1.8,0.9-2.9c0.2-4.2-1.9-8.1-4.6-11.3C222,84.6,216,80.8,212.8,85.9z"
	/>
<path class="st1" d="M247.1,149c7.5-1.4,10.7-10,6.1-16c-4.3-5.6-11.2-8.5-11.2-8.5c-3.1-1-5.5-3.2-6.8-4.7
	c-1.7-1.8-3.6-3.4-5.7-4.6c-1-0.6-2-1-2.9-1.4c-6.8-2.6-14.4,1.3-16.2,8.1c-0.5,1.8-0.7,3.5-0.7,5c-0.1,3.7-0.4,7.5-1.8,10.9
	c-1.7,4.2-2.2,8.8-1.5,13.1h31.9c1.1-2.1,1.3-4.1,1.3-4.1C241.7,148.9,244.8,149.4,247.1,149z"/>
<path class="st1" d="M273.2,4.3c1.4,0.6,2.8,1.2,4.4,1.3c2,0.1,3.9-0.8,5.2-2c0.8-0.8,1.4-1.7,1.8-2.6h-15.2
	c0.3,0.6,0.6,1.1,1.2,1.6C271.3,3.2,272.3,3.9,273.2,4.3z"/>
<path class="st1" d="M251.1,7.4c-0.5,3.5-0.2,7.2,1.9,10.1c0.6,0.8,1.1,1.2,2.1,1.6c0.8,0.4,1.9,0.7,2.8,0.8
	c1.4,0.1,2.8,0.2,4.1-0.2c1.6-0.6,2.8-2,3.4-3.5s0.5-3.2,0.3-4.8c-0.4-2.7-1.4-5.3-3-7.6c-0.7-1.1-1.7-2.1-2.9-2.9h-5.5
	C252.5,2.4,251.4,5.3,251.1,7.4z"/>
<path class="st1" d="M314.6,6.1c-1.7,0.3-3.1,1.3-4.3,2.4c-2.1,1.9-3.8,4.3-5,6.9c-0.7,1.6-1.2,3.2-1.1,4.9c0.1,1.7,0.9,3.5,2.3,4.5
	c1.1,0.8,2.6,1.1,3.9,1.3c0.9,0.2,2.1,0.1,3,0c1-0.2,1.7-0.5,2.4-1.1c2.9-2.4,4.2-6.1,4.7-9.8C321.1,11.3,320,5.2,314.6,6.1z"/>
<path class="st1" d="M294.2,7.4c1.5,0.5,3.1,0.3,4.7,0.2c1-0.1,2.3-0.4,3.2-0.8c1-0.4,1.7-0.9,2.3-1.7c1-1.2,1.6-2.6,2-4.1h-16.5
	c0,0.9,0.2,1.8,0.5,2.7C291,5.3,292.4,6.8,294.2,7.4z"/>
<path class="st1" d="M301.4,33c-2-2.5-2.9-5.7-3.2-7.7c-0.4-2.4-1.1-4.8-2.3-7c-0.5-1-1.1-2-1.7-2.8c-4.4-5.9-12.8-6.6-18.2-1.6
	c-1.4,1.3-2.5,2.7-3.3,3.9c-2.1,3.2-4.4,6.3-7.5,8.5c-6,4.3-9.9,11.5-10.5,17.9c-0.3,3.3,3.1,9,7.2,9.3c8.6,0.8,9.3-4.4,9.3-4.4
	c7.9,12.2,16,2,16,2c0.8,2.9,3.1,5,5.3,5.9c7.1,2.8,14.5-3,13.9-10.6C305.6,39.2,301.4,33,301.4,33z"/>
<path class="st1" d="M434.7,46.9c-1.7-4.1-4.2-7.8-7.4-10.8c-1.9-1.8-4-3.3-6.6-3.8c-8.2-1.6-10.1,7.8-9.5,13.7
	c0.6,5.7,2.5,11.5,6.8,15.2c1.2,1,2.2,1.5,3.7,1.8c1.4,0.3,3.1,0.4,4.6,0.2c2.1-0.3,4.3-0.7,6.1-1.9c2.2-1.5,3.5-4.2,3.7-6.8
	C436.4,52,435.7,49.4,434.7,46.9z"/>
<path class="st1" d="M423.8,76.9c-2.7-2.8-6.1-4.9-9.7-6.3c-2.1-0.8-4.4-1.3-6.7-0.9c-7.2,1.4-5.6,9.8-3.1,14.4
	c2.5,4.4,6,8.5,10.7,10.1c1.3,0.4,2.3,0.5,3.6,0.2c1.2-0.2,2.7-0.7,3.8-1.4c1.6-1,3.3-2,4.3-3.6c1.3-2,1.4-4.6,0.7-6.8
	C426.9,80.4,425.4,78.5,423.8,76.9z"/>
<path class="st1" d="M473.5,56.1c1.5,1.8,3.8,3.1,6.1,3c1.9,0,3.7-0.9,5.4-1.7c1.1-0.6,2.3-1.5,3.2-2.5c1-1,1.5-1.9,1.8-3.2
	c1.2-4.9-0.4-10.1-2.8-14.5c-2.5-4.6-8.7-10.5-13.8-5.2c-1.6,1.7-2.4,3.9-2.8,6.1c-0.8,3.8-0.8,7.8,0.1,11.6
	C471.2,52,472,54.3,473.5,56.1z"/>
<path class="st1" d="M439.5,42.4c1.2,2.3,2.8,4.5,5,6c2.2,1.5,5,2.2,7.6,1.5c2.1-0.6,3.7-2.1,5.3-3.5c1.1-1,2.1-2.4,2.8-3.6
	c0.7-1.4,1-2.5,1-4c-0.1-5.7-3.4-10.9-7.4-15c-4.1-4.3-12.6-8.8-16.6-1.5c-1.2,2.3-1.4,5-1.3,7.5C436.2,34.2,437.4,38.5,439.5,42.4z
	"/>
<path class="st1" d="M480.6,72.3c-4.3-1.1-7.8-4-9.8-5.9c-2.4-2.4-5.2-4.4-8.2-5.9c-1.4-0.7-2.8-1.2-4.1-1.6
	c-9.5-2.9-19.4,3.1-21.3,12.9c-0.5,2.5-0.6,4.9-0.5,7c0.2,5.2,0.2,10.5-1.4,15.5c-3.2,9.6-1.6,20.6,2.9,28.1
	c2.3,3.8,10.7,7.3,15.4,4.5c10.1-6.1,6.6-12.4,6.6-12.4c18.5,7,19.1-10.7,19.1-10.7c3.3,2.6,7.5,3,10.6,2.2c10-2.6,13.6-15,6.8-22.8
	C490.3,75.7,480.6,72.3,480.6,72.3z"/>
<path class="st2" d="M167.8,29.9c0.4,0.3,1,0.6,1.5,0.8c0.7,0.2,1.5,0.5,2.3,0.4c1-0.1,1.8-0.8,2.3-1.6c0.5-0.8,0.7-1.8,0.8-2.7
	c0.1-1.6-0.1-3.2-0.6-4.7c-0.3-0.9-0.8-1.7-1.5-2.3c-2.4-1.8-4.5,0.9-5.3,2.9c-0.7,1.9-1,4.1-0.3,6
	C167.1,29.2,167.3,29.5,167.8,29.9z"/>
<path class="st2" d="M166.5,37.2c0.1-0.8,0-1.7-0.3-2.5c-0.4-1.3-1.2-2.6-2.1-3.6c-0.6-0.6-1.2-1.2-2-1.4c-2.6-0.7-3.4,2.3-3.3,4.2
	c0.1,1.8,0.5,3.7,1.8,5c0.3,0.4,0.7,0.5,1.2,0.7c0.4,0.1,1,0.2,1.5,0.2c0.7-0.1,1.4-0.1,2-0.5C165.9,38.8,166.3,38,166.5,37.2z"/>
<path class="st2" d="M187.1,38c0.6,0.3,1.3,0.3,2,0.3c0.5,0,1-0.1,1.4-0.3c0.5-0.2,0.8-0.4,1.1-0.7c1.2-1.4,1.5-3.3,1.4-5.1
	c-0.1-1.9-1.1-4.8-3.6-3.9c-0.8,0.3-1.4,0.9-1.9,1.5c-0.9,1.1-1.5,2.4-1.8,3.8c-0.2,0.8-0.3,1.7-0.1,2.5
	C185.8,36.8,186.3,37.6,187.1,38z"/>
<path class="st2" d="M179.7,30.5c0.8,0.1,1.5-0.1,2.3-0.3c0.5-0.1,1.1-0.4,1.5-0.7c0.5-0.3,0.7-0.6,1-1.1c0.9-1.9,0.6-4.1,0-6
	c-0.6-2-2.7-4.9-5.1-3.2c-0.8,0.5-1.3,1.4-1.6,2.2c-0.6,1.5-0.9,3.1-0.9,4.7c0,1,0.2,1.9,0.6,2.8C177.9,29.6,178.7,30.3,179.7,30.5z
	"/>
<path class="st2" d="M188.8,48.5c-0.9-3.4-3.5-6.1-3.5-6.1c-1.2-1.1-1.9-2.6-2.2-3.5c-0.4-1.1-1-2.2-1.7-3.2
	c-0.3-0.5-0.7-0.8-1.1-1.2c-2.6-2.5-6.8-2.1-9,0.7c-0.6,0.7-1,1.5-1.3,2.2c-0.8,1.7-1.6,3.4-2.9,4.8c-2.6,2.6-3.8,6.4-3.6,9.6
	c0.1,1.6,2.3,4.1,4.3,3.9c4.3-0.4,4.1-2.9,4.1-2.9c4.9,5.3,7.9-0.4,7.9-0.4c0.6,1.4,1.9,2.2,3.1,2.4
	C186.6,55.6,189.7,52.1,188.8,48.5z"/>
<path class="st2" d="M97.6,139c-2.4-1.9-4.5,0.9-5.3,2.9c-0.7,1.9-1,4.1-0.3,6c0.2,0.5,0.5,0.8,0.9,1.2c0.4,0.3,1,0.6,1.5,0.8
	c0.7,0.2,1.5,0.5,2.3,0.4c1-0.1,1.8-0.8,2.3-1.6c0.5-0.8,0.7-1.8,0.8-2.7c0.1-1.6-0.1-3.2-0.6-4.7C98.8,140.4,98.3,139.6,97.6,139z"
	/>
<path class="st2" d="M87.2,148.9c-2.1-0.5-3,1.1-3.3,2.6h6.5c-0.4-0.5-0.8-1-1.3-1.4C88.7,149.6,88,149.1,87.2,148.9z"/>
<path class="st2" d="M114.7,147.4c-0.8,0.3-1.4,0.8-1.9,1.4c-0.7,0.8-1.3,1.8-1.6,2.7h7.2c0-0.2,0-0.4,0-0.6
	C118.2,149.2,117.2,146.6,114.7,147.4z"/>
<path class="st2" d="M104.5,138.4c-0.8,0.5-1.3,1.4-1.6,2.2c-0.6,1.5-0.9,3.1-0.9,4.6c0,1,0.2,1.9,0.6,2.8c0.5,0.8,1.3,1.5,2.2,1.7
	c0.8,0.1,1.5-0.1,2.3-0.3c0.5-0.1,1.1-0.4,1.5-0.7c0.5-0.3,0.7-0.6,1-1.1c0.9-1.9,0.6-4.1,0-6C109,139.5,107,136.7,104.5,138.4z"/>
<path class="st2" d="M344.3,121.6c-1.4,1.5-2.5,3.4-2.6,5.5c0,0.5,0.1,0.9,0.4,1.4c0.3,0.5,0.6,1,1,1.3c0.6,0.5,1.2,1,2,1.2
	c0.9,0.3,2,0,2.7-0.6c0.8-0.6,1.3-1.4,1.8-2.2c0.7-1.4,1.1-3,1.2-4.6c0-0.9,0-1.9-0.5-2.7C348.8,118.3,345.7,120,344.3,121.6z"/>
<path class="st2" d="M336.9,126.2c-2.1-1.6-4,0.8-4.7,2.6c-0.6,1.7-0.9,3.6-0.2,5.3c0.2,0.5,0.4,0.7,0.8,1c0.4,0.3,0.8,0.6,1.3,0.7
	c0.6,0.2,1.3,0.4,2,0.3c0.8-0.1,1.6-0.7,2-1.4c0.4-0.7,0.6-1.6,0.7-2.4c0.1-1.4-0.1-2.8-0.6-4.1
	C337.9,127.4,337.5,126.7,336.9,126.2z"/>
<path class="st2" d="M362.8,135.3c-0.8,0-1.6,0.3-2.4,0.7c-1.2,0.7-2.3,1.6-3.1,2.8c-0.5,0.7-0.9,1.4-1,2.3c-0.1,0.8,0,1.8,0.6,2.4
	c0.5,0.5,1.1,0.8,1.7,1.1c0.4,0.2,1,0.3,1.4,0.3c0.5,0,0.9,0,1.3-0.3c1.6-0.8,2.7-2.5,3.3-4.2C365.3,138.5,365.5,135.4,362.8,135.3z
	"/>
<path class="st2" d="M358.1,133.5c1.5-1.4,2.2-3.5,2.3-5.6c0.2-2.1-0.6-5.5-3.5-4.9c-0.9,0.2-1.7,0.8-2.4,1.4c-1.1,1.1-2,2.5-2.6,4
	c-0.3,0.9-0.6,1.8-0.5,2.8c0.1,0.9,0.6,1.9,1.4,2.4c0.7,0.4,1.5,0.5,2.2,0.6c0.5,0.1,1.2,0,1.7-0.1
	C357.3,134.1,357.7,133.9,358.1,133.5z"/>
<path class="st2" d="M352.8,142.4c0.1-1.2,0-2.4-0.3-3.5c-0.2-0.5-0.3-1-0.5-1.4c-1.5-3.2-5.5-4.4-8.6-2.6c-0.8,0.5-1.5,1-2,1.5
	c-1.4,1.2-2.8,2.5-4.6,3.2c-3.4,1.4-6,4.3-7,7.2c-0.4,1.3,0.3,3.7,1.7,4.7h5.2c0.4-0.4,0.5-0.7,0.5-0.7c0.1,0.2,0.2,0.5,0.3,0.7h17
	c0-2.7-1-5-1-5C352.8,144.9,352.8,143.4,352.8,142.4z"/>
<path class="st1" d="M629.7,16.8c-0.1,1.3,0.1,2.3,0.7,3.6c0.6,1.1,1.4,2.4,2.3,3.3c1.4,1.3,2.8,2.7,4.7,3.3c2.3,0.8,4.9,0.3,7-0.9
	s3.6-3.1,4.8-5c2.1-3.3,3.4-7,3.9-10.8c0.3-2.2,0.2-4.6-0.8-6.6c-0.5-1.1-1.2-1.9-2-2.5h-8.7c-1.7,0.8-3.3,1.9-4.6,3
	C633.3,7.5,630.1,11.8,629.7,16.8z"/>
<path class="st1" d="M605.7,34.9c0.9,0.8,2,1.6,3.1,2c1.6,0.7,3.3,1.3,5,1.2c2.2-0.1,4.1-1.4,5.4-3.2c1.2-1.7,1.8-3.8,2.2-5.9
	c0.5-3.5,0.3-7.1-0.6-10.5c-0.6-2-1.4-4-3-5.4c-5-4.5-10.2,1.2-12.2,5.6c-1.9,4.2-3,9-1.6,13.4C604.3,33.3,604.8,34,605.7,34.9z"/>
<path class="st1" d="M681.2,41.1c-2.1-0.3-4.2,0.4-6,1.2c-3.2,1.5-6.1,3.7-8.4,6.4c-1.4,1.6-2.6,3.4-3.1,5.5
	c-0.5,2.1-0.2,4.4,1.1,6.1c1.1,1.4,2.6,2.2,4.2,3c1,0.5,2.4,0.9,3.5,1c1.2,0.2,2.2,0,3.3-0.4c4.2-1.8,7.2-5.7,9.1-9.9
	C686.9,49.7,687.8,42,681.2,41.1z"/>
<path class="st1" d="M656.5,35.1c1.6,1.2,3.6,1.6,5.5,2c1.3,0.3,2.9,0.2,4.2,0c1.4-0.2,2.4-0.6,3.5-1.4c4.1-3.2,6.1-8.4,7-13.6
	c0.9-5.3-0.4-14-7.9-13c-2.4,0.3-4.4,1.6-6.2,3.2c-3.1,2.6-5.6,5.9-7.3,9.5c-1,2.1-1.8,4.5-1.7,6.9
	C653.5,31.1,654.5,33.6,656.5,35.1z"/>
<path class="st1" d="M654.6,57.9c0.4-3.1,0.4-6.2-0.2-9.2c-0.3-1.4-0.6-2.7-1-3.9c-3-8.5-12.8-12.5-21-8.6c-2.1,1-3.9,2.2-5.4,3.5
	c-3.7,3-7.6,5.9-12.1,7.4c-8.8,2.9-16,10.1-19,17.4c-1.6,3.8,0.4,11.8,5.1,13.7c10,4.1,12.7-1.9,12.7-1.9
	c4.9,17.4,18.2,8.1,18.2,8.1c-0.1,3.8,1.9,7.1,4.2,8.9c7.4,5.9,18.4,1.8,20.4-7.4c1.9-8.7-0.8-17.6-0.8-17.6
	C654,64.5,654.2,60.4,654.6,57.9z"/>
<path class="st1" d="M780.5,86.9c-1.3-1.4-2.8-2.6-4.6-3.2c-5.9-1.6-7.8,5.2-7.6,9.6c0.2,4.2,1.2,8.5,4.2,11.5
	c0.8,0.8,1.5,1.2,2.6,1.5c1,0.3,2.3,0.5,3.3,0.4c1.6-0.1,3.2-0.3,4.6-1c1.7-1,2.8-2.9,3.1-4.8c0.3-1.9-0.1-3.9-0.7-5.7
	C784.4,92.1,782.7,89.2,780.5,86.9z"/>
<path class="st1" d="M775.8,116.5c-1.9-2.2-4.2-3.9-6.8-5.1c-1.5-0.7-3.2-1.2-4.8-1c-5.4,0.7-4.6,6.9-3,10.4c1.6,3.4,3.9,6.6,7.3,8
	c0.9,0.4,1.7,0.5,2.7,0.3c0.9-0.1,2-0.4,2.8-0.8c1.2-0.6,2.5-1.3,3.4-2.4c1.1-1.4,1.3-3.3,0.9-5S776.9,117.8,775.8,116.5z"/>
<path class="st1" d="M814.5,86.3c-1.2,1.1-2,2.7-2.4,4.3c-0.8,2.8-1,5.7-0.5,8.5c0.3,1.7,0.7,3.4,1.7,4.8c1,1.4,2.6,2.5,4.3,2.5
	c1.4,0.1,2.7-0.5,4-1c0.9-0.4,1.8-1,2.5-1.6c0.7-0.7,1.2-1.3,1.5-2.2c1.1-3.5,0.3-7.4-1.3-10.8C822.7,87.3,818.5,82.7,814.5,86.3z"
	/>
<path class="st1" d="M788.4,77.2c-1,1.6-1.3,3.6-1.3,5.5c0,3.2,0.7,6.5,2,9.4c0.8,1.8,1.8,3.4,3.3,4.7c1.5,1.2,3.5,1.9,5.5,1.5
	c1.5-0.3,2.9-1.3,4.1-2.3c0.8-0.6,1.6-1.6,2.2-2.5c0.6-1,0.9-1.8,0.9-2.9c0.2-4.2-1.9-8.1-4.6-11.3
	C797.7,75.8,791.7,72.1,788.4,77.2z"/>
<path class="st1" d="M800.6,145c13.2,6,14.5-6.7,14.5-6.7c2.3,2,5.3,2.5,7.6,2.1c7.5-1.4,10.7-10,6.1-16c-4.3-5.6-11.2-8.5-11.2-8.5
	c-3.1-1-5.5-3.2-6.8-4.7c-1.6-1.8-3.6-3.4-5.7-4.6c-1-0.6-2-1-2.9-1.4c-6.8-2.6-14.3,1.3-16.2,8.1c-0.5,1.8-0.7,3.5-0.7,5
	c-0.1,3.7-0.4,7.5-1.8,11c-2.8,6.7-2.2,14.7,0.7,20.2c0.2,0.5,0.6,0.9,1.1,1.4h13.7C802,147.8,800.6,145,800.6,145z"/>
<path class="st1" d="M828.8,9c0.6,0.7,1.2,1.2,2.1,1.6c0.8,0.4,1.9,0.7,2.8,0.8c1.4,0.1,2.8,0.2,4.1-0.2c1.6-0.5,2.8-1.9,3.4-3.4
	s0.5-3.1,0.3-4.6c-0.1-0.7-0.3-1.4-0.5-2.1h-14.3C826.5,3.8,827,6.7,828.8,9z"/>
<path class="st1" d="M879.9,11.9c0.1,1.6,0.9,3.3,2.3,4.2c1.1,0.8,2.5,1,3.9,1.2c0.9,0.2,2.1,0.1,3,0c1-0.2,1.7-0.4,2.4-1
	c2.8-2.2,4.2-5.8,4.7-9.2c0.3-1.8,0.1-4.3-0.8-6.1h-9.7c-2,1.8-3.6,3.9-4.7,6.2C880.3,8.7,879.8,10.3,879.9,11.9z"/>
<path class="st1" d="M877,24.3c-2.1-2.5-2.9-5.8-3.2-7.7c-0.4-2.5-1.2-4.8-2.3-7c-0.5-1-1.1-2-1.7-2.8c-4.3-5.9-12.8-6.6-18.2-1.6
	c-1.4,1.3-2.5,2.7-3.3,3.9c-2.1,3.2-4.4,6.3-7.5,8.6c-6,4.3-9.9,11.5-10.5,17.8c-0.3,3.3,3.1,9,7.2,9.3c8.6,0.8,9.3-4.4,9.3-4.4
	c7.9,12.2,16,2,16,2c0.8,2.9,3.1,5,5.3,5.9c7.1,2.8,14.5-3,13.9-10.6C881.3,30.5,877,24.3,877,24.3z"/>
<path class="st1" d="M1010.4,38.2c-1.7-4.1-4.2-7.8-7.4-10.8c-1.9-1.8-4-3.3-6.6-3.8c-8.2-1.6-10.1,7.8-9.5,13.7
	c0.6,5.7,2.5,11.5,6.8,15.2c1.2,1,2.2,1.5,3.7,1.8c1.4,0.3,3.1,0.4,4.6,0.2c2.1-0.3,4.3-0.7,6.1-1.9c2.2-1.5,3.5-4.1,3.7-6.8
	S1011.3,40.7,1010.4,38.2z"/>
<path class="st1" d="M999.4,68.2c-2.7-2.8-6.1-4.9-9.7-6.3c-2.1-0.8-4.4-1.4-6.7-0.9c-7.2,1.5-5.6,9.8-3.1,14.4
	c2.5,4.4,6,8.5,10.7,10.1c1.3,0.4,2.3,0.5,3.6,0.2c1.2-0.2,2.7-0.7,3.8-1.4c1.6-1,3.3-2,4.3-3.6c1.3-2,1.4-4.6,0.7-6.8
	C1002.5,71.7,1001.1,69.8,999.4,68.2z"/>
<path class="st1" d="M1049.2,47.4c1.5,1.8,3.8,3.1,6.1,3c1.9,0,3.7-0.9,5.4-1.7c1.1-0.6,2.3-1.5,3.2-2.5c1-1,1.5-1.9,1.8-3.2
	c1.2-4.9-0.4-10.1-2.8-14.5c-2.5-4.6-8.7-10.5-13.8-5.2c-1.6,1.7-2.4,3.9-2.8,6.1c-0.8,3.8-0.8,7.8,0.1,11.6
	C1046.8,43.3,1047.7,45.6,1049.2,47.4z"/>
<path class="st1" d="M1015.1,33.7c1.2,2.3,2.8,4.5,5,6s5,2.2,7.6,1.5c2.1-0.6,3.7-2.1,5.3-3.5c1.1-1,2.1-2.4,2.8-3.6
	c0.7-1.4,1-2.5,1-4c-0.1-5.7-3.4-10.8-7.4-15c-4.1-4.3-12.6-8.8-16.6-1.5c-1.2,2.3-1.4,5-1.3,7.5
	C1011.8,25.5,1013.1,29.8,1015.1,33.7z"/>
<path class="st1" d="M1056.3,63.6c-4.3-1.1-7.8-4-9.8-5.9c-2.4-2.4-5.2-4.4-8.2-5.8c-1.4-0.7-2.8-1.2-4.1-1.6
	c-9.5-2.9-19.4,3.1-21.3,12.9c-0.5,2.5-0.6,4.9-0.5,7c0.2,5.2,0.2,10.5-1.4,15.5c-3.2,9.6-1.6,20.6,2.9,28.1
	c2.3,3.8,10.7,7.3,15.4,4.5c10.1-6.1,6.6-12.4,6.6-12.4c18.5,7,19.1-10.7,19.1-10.7c3.3,2.6,7.5,3,10.6,2.2c10-2.6,13.6-15,6.8-22.8
	C1065.9,67,1056.3,63.6,1056.3,63.6z"/>
<path class="st2" d="M743.4,21.2c0.4,0.3,1,0.6,1.5,0.8c0.7,0.2,1.5,0.5,2.3,0.4c1-0.1,1.8-0.8,2.3-1.6c0.5-0.8,0.7-1.8,0.8-2.7
	c0.1-1.6-0.1-3.2-0.6-4.7c-0.3-0.9-0.8-1.7-1.5-2.3c-2.4-1.8-4.5,0.9-5.3,2.9c-0.7,1.9-1,4.1-0.3,6C742.7,20.5,743,20.8,743.4,21.2z
	"/>
<path class="st2" d="M742.1,28.5c0.1-0.8,0-1.7-0.3-2.5c-0.4-1.3-1.2-2.6-2.1-3.6c-0.6-0.6-1.2-1.2-2-1.4c-2.6-0.7-3.4,2.3-3.3,4.2
	c0.1,1.8,0.5,3.7,1.8,5c0.3,0.3,0.7,0.5,1.2,0.6c0.4,0.1,1,0.2,1.5,0.2c0.7-0.1,1.4-0.1,2-0.5C741.6,30.1,742,29.3,742.1,28.5z"/>
<path class="st2" d="M762.8,29.2c0.6,0.3,1.3,0.3,2,0.3c0.5,0,1-0.1,1.4-0.3c0.5-0.2,0.8-0.4,1.1-0.7c1.2-1.4,1.5-3.3,1.4-5.1
	c-0.1-1.9-1.1-4.8-3.6-3.9c-0.8,0.3-1.4,0.9-1.9,1.5c-0.9,1.1-1.5,2.4-1.8,3.8c-0.2,0.8-0.3,1.7-0.1,2.5
	C761.5,28.1,762,28.9,762.8,29.2z"/>
<path class="st2" d="M755.3,21.8c0.8,0.1,1.5-0.1,2.3-0.3c0.5-0.1,1.1-0.4,1.5-0.7c0.5-0.3,0.7-0.6,1-1.1c0.9-1.9,0.6-4.1,0-6
	c-0.6-2-2.7-4.9-5.1-3.2c-0.8,0.5-1.3,1.4-1.6,2.2c-0.6,1.5-0.9,3.1-0.9,4.6c0,1,0.2,1.9,0.6,2.8C753.6,20.9,754.4,21.6,755.3,21.8z
	"/>
<path class="st2" d="M764.5,39.8c-0.9-3.4-3.5-6.1-3.5-6.1c-1.2-1.1-1.9-2.5-2.2-3.5c-0.4-1.2-1-2.2-1.7-3.2
	c-0.4-0.5-0.7-0.8-1.1-1.2c-2.6-2.5-6.8-2.1-9,0.7c-0.6,0.7-1,1.5-1.3,2.2c-0.8,1.7-1.6,3.5-2.9,4.8c-2.6,2.6-3.8,6.4-3.6,9.6
	c0.1,1.6,2.3,4.1,4.3,3.9c4.3-0.4,4.1-2.9,4.1-2.9c4.9,5.3,7.9-0.4,7.9-0.4c0.6,1.4,1.9,2.2,3.1,2.4
	C762.2,46.8,765.4,43.4,764.5,39.8z"/>
<path class="st2" d="M539.9,118c0.4,0.3,1,0.6,1.5,0.8c0.7,0.2,1.5,0.5,2.3,0.4c1-0.1,1.8-0.8,2.3-1.6c0.5-0.8,0.7-1.8,0.8-2.7
	c0.1-1.6-0.1-3.2-0.6-4.7c-0.3-0.9-0.8-1.7-1.5-2.3c-2.4-1.8-4.5,0.9-5.3,2.9c-0.7,1.9-1,4.1-0.3,6
	C539.2,117.4,539.5,117.7,539.9,118z"/>
<path class="st2" d="M538.6,125.3c0.1-0.8,0-1.7-0.3-2.5c-0.4-1.3-1.2-2.6-2.1-3.6c-0.6-0.6-1.2-1.2-2-1.4c-2.6-0.7-3.4,2.3-3.3,4.2
	c0.1,1.8,0.5,3.7,1.8,5c0.3,0.3,0.7,0.5,1.2,0.6c0.4,0.1,1,0.2,1.5,0.2c0.7-0.1,1.4-0.1,2-0.5C538.1,127,538.5,126.2,538.6,125.3z"
	/>
<path class="st2" d="M561.6,116.4c-0.8,0.3-1.4,0.9-1.9,1.5c-0.9,1.1-1.5,2.4-1.8,3.8c-0.2,0.8-0.3,1.7-0.1,2.5
	c0.2,0.8,0.7,1.6,1.5,2c0.6,0.3,1.3,0.3,2,0.3c0.5,0,1-0.1,1.4-0.3c0.5-0.2,0.8-0.4,1.1-0.7c1.2-1.4,1.5-3.3,1.4-5.1
	C565.2,118.4,564.2,115.5,561.6,116.4z"/>
<path class="st2" d="M551.8,118.7c0.8,0.1,1.5-0.1,2.3-0.3c0.5-0.1,1.1-0.4,1.5-0.7c0.5-0.3,0.7-0.6,1-1.1c0.9-1.9,0.7-4.1,0-6
	c-0.6-2-2.7-4.9-5.1-3.2c-0.8,0.5-1.3,1.4-1.6,2.2c-0.6,1.5-0.9,3.1-0.9,4.6c0,1,0.2,1.9,0.6,2.8
	C550.1,117.8,550.9,118.5,551.8,118.7z"/>
<path class="st2" d="M557.5,130.6c-1.2-1.1-1.9-2.5-2.2-3.5c-0.4-1.2-1-2.2-1.7-3.2c-0.4-0.5-0.7-0.8-1.1-1.2
	c-2.6-2.5-6.8-2.1-9,0.7c-0.6,0.7-1,1.5-1.3,2.2c-0.8,1.7-1.6,3.4-2.9,4.8c-2.6,2.6-3.8,6.4-3.6,9.6c0.1,1.6,2.3,4.1,4.3,3.9
	c4.3-0.4,4.1-2.9,4.1-2.9c4.9,5.3,7.9-0.4,7.9-0.4c0.6,1.4,1.9,2.2,3.1,2.4c3.7,0.8,6.8-2.7,5.9-6.3
	C560.1,133.2,557.5,130.6,557.5,130.6z"/>
<path class="st2" d="M673.2,130.3c-2.4-1.8-4.5,0.9-5.3,2.9c-0.7,1.9-1,4.1-0.3,6c0.2,0.5,0.5,0.8,0.9,1.2c0.4,0.3,1,0.6,1.5,0.8
	c0.7,0.2,1.5,0.5,2.3,0.4c1-0.1,1.8-0.8,2.3-1.6c0.5-0.8,0.7-1.8,0.8-2.7c0.1-1.6-0.1-3.2-0.6-4.7
	C674.4,131.7,674,130.9,673.2,130.3z"/>
<path class="st2" d="M664.9,141.6c-0.6-0.6-1.2-1.1-2-1.4c-2.6-0.7-3.4,2.3-3.3,4.2c0.1,1.8,0.5,3.7,1.8,5c0.3,0.3,0.7,0.5,1.2,0.6
	c0.4,0.1,1,0.2,1.5,0.2c0.7-0.1,1.4-0.1,2-0.5c0.8-0.4,1.2-1.2,1.3-2.1c0.1-0.8,0-1.7-0.3-2.5C666.6,143.9,665.9,142.6,664.9,141.6z
	"/>
<path class="st2" d="M690.3,138.7c-0.8,0.3-1.4,0.9-1.9,1.5c-0.9,1.1-1.5,2.4-1.8,3.8c-0.2,0.8-0.3,1.7-0.1,2.5s0.7,1.6,1.5,2
	c0.6,0.3,1.3,0.3,2,0.3c0.5,0,1-0.1,1.4-0.3c0.5-0.2,0.8-0.4,1.1-0.7c1.2-1.4,1.5-3.3,1.4-5.1C693.9,140.7,692.9,137.8,690.3,138.7z
	"/>
<path class="st2" d="M680.2,129.7c-0.8,0.5-1.3,1.4-1.6,2.2c-0.6,1.5-0.9,3.1-0.9,4.6c0,1,0.2,1.9,0.6,2.8c0.5,0.8,1.3,1.5,2.2,1.7
	c0.8,0.1,1.5-0.1,2.3-0.3c0.5-0.1,1.1-0.4,1.5-0.7c0.5-0.3,0.7-0.6,1-1.1c0.9-1.9,0.7-4.1,0-6C684.7,130.8,682.6,128,680.2,129.7z"
	/>
<path class="st2" d="M682.3,146c-0.4-0.4-0.7-0.8-1.1-1.1c-2.6-2.3-6.8-2-9,0.7c-0.6,0.7-1,1.4-1.3,2c-0.6,1.3-1.3,2.6-2.3,3.8h16.7
	c-0.7-0.8-1.1-1.7-1.3-2.4C683.6,148,683,147,682.3,146z"/>
<path class="st2" d="M918.8,121.1c0.6,0.5,1.2,1,2,1.2c0.9,0.3,2,0,2.7-0.6c0.8-0.6,1.3-1.4,1.8-2.2c0.7-1.4,1.1-3,1.2-4.6
	c0-0.9,0-1.9-0.5-2.7c-1.5-2.6-4.6-0.9-6,0.7c-1.4,1.5-2.5,3.4-2.6,5.5c0,0.5,0.1,0.9,0.4,1.4C918,120.3,918.4,120.8,918.8,121.1z"
	/>
<path class="st2" d="M908.5,126.4c0.4,0.3,0.8,0.6,1.3,0.7c0.7,0.2,1.3,0.4,2,0.3c0.8-0.1,1.6-0.7,2-1.4c0.4-0.7,0.6-1.6,0.7-2.4
	c0.1-1.4-0.1-2.8-0.6-4.2c-0.3-0.8-0.7-1.5-1.3-2c-2.1-1.6-4,0.8-4.7,2.6c-0.6,1.7-0.9,3.7-0.2,5.3
	C907.9,125.8,908.1,126.1,908.5,126.4z"/>
<path class="st2" d="M938.5,126.6c-0.8-0.1-1.6,0.3-2.3,0.7c-1.2,0.7-2.3,1.6-3.1,2.8c-0.5,0.7-0.9,1.4-1,2.3
	c-0.1,0.8,0,1.8,0.6,2.4c0.5,0.5,1.1,0.8,1.7,1.1c0.4,0.2,1,0.3,1.4,0.3c0.5,0,0.9,0,1.3-0.3c1.6-0.8,2.7-2.5,3.3-4.2
	C941,129.8,941.2,126.7,938.5,126.6z"/>
<path class="st2" d="M933.7,124.8c1.5-1.4,2.2-3.5,2.3-5.6c0.2-2.1-0.6-5.5-3.5-4.9c-0.9,0.2-1.7,0.8-2.4,1.4c-1.1,1.1-2,2.5-2.6,4
	c-0.3,0.9-0.6,1.8-0.5,2.8c0.1,1,0.6,1.9,1.4,2.4c0.7,0.4,1.4,0.5,2.2,0.6c0.5,0.1,1.2,0,1.7-0.1C933,125.4,933.3,125.2,933.7,124.8
	z"/>
<path class="st2" d="M928.5,134.1c0.1-1.2,0-2.5-0.3-3.6c-0.2-0.6-0.3-1.1-0.5-1.5c-1.5-3.3-5.5-4.6-8.6-2.8c-0.8,0.5-1.5,1-2,1.5
	c-1.4,1.3-2.8,2.6-4.5,3.3c-3.4,1.4-6,4.5-7,7.4c-0.5,1.5,0.5,4.7,2.4,5.3c4.1,1.3,5-1.1,5-1.1c2.5,6.7,7.5,2.7,7.5,2.7
	c0.1,1.5,0.9,2.7,1.9,3.4c3.1,2.1,7.3,0.1,7.8-3.6c0.5-3.5-0.9-6.9-0.9-6.9C928.5,136.7,928.4,135,928.5,134.1z"/>
<path class="st1" d="M1178.8,84.3c-1.3-1.4-2.8-2.7-4.6-3.2c-5.9-1.6-7.8,5.2-7.6,9.6c0.2,4.2,1.2,8.5,4.2,11.5
	c0.8,0.8,1.5,1.2,2.6,1.5c1,0.3,2.3,0.5,3.3,0.4c1.6-0.1,3.2-0.3,4.6-1c1.7-1,2.8-2.9,3.1-4.8c0.3-1.9-0.1-3.9-0.7-5.7
	C1182.6,89.6,1181,86.7,1178.8,84.3z"/>
<path class="st1" d="M1174.1,114c-1.9-2.2-4.2-3.9-6.8-5.1c-1.5-0.7-3.2-1.2-4.8-1c-5.4,0.7-4.6,6.9-3,10.4c1.6,3.4,3.9,6.5,7.3,8
	c0.9,0.4,1.7,0.5,2.7,0.3c0.9-0.1,2-0.4,2.8-0.8c1.2-0.6,2.5-1.3,3.4-2.4c1.1-1.4,1.3-3.3,0.9-4.9
	C1176.2,116.7,1175.2,115.3,1174.1,114z"/>
<path class="st1" d="M1212.8,83.7c-1.2,1.1-2,2.7-2.4,4.3c-0.8,2.8-1,5.7-0.5,8.5c0.3,1.7,0.7,3.4,1.7,4.8s2.6,2.5,4.3,2.5
	c1.4,0.1,2.7-0.5,4-1c0.9-0.3,1.8-1,2.5-1.6c0.7-0.7,1.2-1.3,1.5-2.2c1.1-3.5,0.3-7.4-1.3-10.8C1221,84.8,1216.8,80.1,1212.8,83.7z"
	/>
<path class="st1" d="M1186.7,74.7c-1,1.6-1.3,3.6-1.3,5.5c0,3.2,0.7,6.4,2,9.4c0.8,1.8,1.8,3.4,3.3,4.7c1.5,1.2,3.5,1.9,5.5,1.5
	c1.5-0.3,2.8-1.3,4.1-2.3c0.8-0.6,1.6-1.6,2.2-2.5c0.6-1,0.9-1.8,0.9-2.9c0.2-4.2-1.9-8.1-4.6-11.3C1196,73.3,1190,69.5,1186.7,74.7
	z"/>
<path class="st1" d="M1198.9,142.5c13.2,6,14.5-6.7,14.5-6.7c2.3,2,5.3,2.5,7.6,2.1c7.5-1.4,10.7-10.1,6.1-16
	c-4.3-5.6-11.2-8.5-11.2-8.5c-3.1-1-5.5-3.2-6.8-4.7c-1.7-1.8-3.6-3.4-5.7-4.6c-1-0.6-2-1-2.9-1.4c-6.8-2.6-14.3,1.3-16.2,8.2
	c-0.5,1.8-0.7,3.5-0.7,5c-0.1,3.7-0.4,7.6-1.8,11c-2.8,6.7-2.2,14.7,0.7,20.3c0.8,1.5,2.8,3,5.1,3.9h6.1
	C1201.1,147.1,1198.9,142.5,1198.9,142.5z"/>
<path class="st1" d="M1229.1,8c0.8,0.3,1.9,0.7,2.8,0.7c1.4,0.1,2.8,0.2,4.1-0.2c1.6-0.5,2.8-1.9,3.4-3.3c0.5-1.4,0.5-2.8,0.3-4.2
	H1225c0.2,2,0.8,3.9,2.1,5.5C1227.6,7.2,1228.2,7.6,1229.1,8z"/>
<path class="st1" d="M1278.2,9.5c0.1,1.6,0.9,3.2,2.3,4.2c1.1,0.8,2.6,1,3.9,1.2c0.9,0.2,2.1,0.1,3,0c1-0.2,1.7-0.4,2.4-1
	c2.9-2.2,4.2-5.7,4.7-9.1c0.2-1.1,0.2-2.4-0.1-3.6h-12.7c-1,1.2-1.8,2.5-2.4,3.8C1278.6,6.3,1278.1,7.9,1278.2,9.5z"/>
<path class="st1" d="M1246.6,7.6c-2.1,3.1-4.4,6.1-7.5,8.3c-6,4.2-9.9,11.2-10.5,17.4c-0.3,3.2,3.1,8.7,7.2,9.1
	c8.7,0.7,9.3-4.3,9.3-4.3c7.9,11.9,15.9,1.9,15.9,1.9c0.8,2.9,3.1,4.9,5.3,5.7c7.1,2.7,14.5-2.9,13.9-10.3c-0.6-7-4.8-13-4.8-13
	c-2-2.5-2.9-5.6-3.2-7.5c-0.4-2.4-1.1-4.7-2.3-6.9c-0.5-1-1.1-1.9-1.7-2.7c-1.6-2-3.6-3.4-5.9-4.2h-7.8c-1.6,0.5-3.1,1.4-4.4,2.6
	C1248.5,5.1,1247.4,6.4,1246.6,7.6z"/>
<path class="st1" d="M1401.3,24.9c-1.9-1.8-4-3.3-6.6-3.8c-8.2-1.6-10.1,7.8-9.5,13.7c0.6,5.7,2.5,11.5,6.8,15.2
	c1.2,1,2.2,1.5,3.7,1.8c1.4,0.3,3.2,0.4,4.6,0.2c2.1-0.3,4.3-0.7,6.1-1.9c2.2-1.5,3.5-4.2,3.7-6.8s-0.5-5.2-1.4-7.7
	C1407,31.6,1404.5,27.9,1401.3,24.9z"/>
<path class="st1" d="M1397.7,65.6c-2.7-2.8-6.1-4.9-9.7-6.3c-2.1-0.8-4.4-1.3-6.7-0.9c-7.2,1.5-5.6,9.8-3.1,14.4
	c2.4,4.4,6,8.5,10.7,10.1c1.3,0.4,2.3,0.5,3.6,0.2c1.2-0.2,2.7-0.7,3.8-1.4c1.6-1,3.3-2,4.3-3.6c1.3-2,1.4-4.6,0.7-6.8
	C1400.8,69.2,1399.4,67.3,1397.7,65.6z"/>
<path class="st1" d="M1434.1,31.5c0.7-1.4,1-2.5,1-4c-0.1-5.7-3.4-10.9-7.4-15c-4.1-4.3-12.6-8.8-16.6-1.5c-1.2,2.3-1.4,5-1.3,7.5
	c0.3,4.4,1.5,8.7,3.6,12.6c1.2,2.3,2.8,4.5,5,6c2.2,1.5,5,2.2,7.6,1.5c2.1-0.6,3.7-2.1,5.3-3.5C1432.4,34.2,1433.4,32.8,1434.1,31.5
	z"/>
<path class="st1" d="M1411.2,60.6c-0.5,2.5-0.6,4.9-0.5,7c0.2,5.2,0.2,10.5-1.4,15.5c-3.2,9.6-1.6,20.6,2.9,28.1
	c1.7,2.8,6.6,5.4,11,5.5c1.4,0,2.6-0.4,3.7-1c9.8-6.1,6.4-12.4,6.4-12.4c0.4,0.1,0.7,0.3,1.1,0.4c-0.1-0.3-0.2-0.4-0.2-0.4
	c1.7,0.6,3.2,1.1,4.7,1.3V51.3c-1.1-0.7-2.1-1.4-3.3-2c-1.4-0.7-2.7-1.2-4-1.6c-1.6-0.5-3.1-0.7-4.6-0.7
	C1419.5,47.3,1412.7,52.7,1411.2,60.6z"/>
<path class="st1" d="M1434.4,103.6c1.6,0.6,3.1,0.9,4.5,1.1v-0.2c-1.4-0.3-2.9-0.7-4.7-1.3C1434.2,103.2,1434.3,103.4,1434.4,103.6z
	"/>
<path class="st1" d="M1411.1,60.6c-0.5,2.5-0.6,4.9-0.5,7c0.2,5.2,0.2,10.5-1.3,15.5c-3.1,9.6-1.5,20.6,2.8,28.1
	c1.7,2.9,6.8,5.6,11.1,5.5c-4.4-0.1-9.3-2.7-11-5.5c-4.4-7.5-6-18.5-2.9-28.1c1.6-5,1.6-10.3,1.4-15.5c-0.1-2.1,0-4.5,0.5-7
	c1.5-7.9,8.2-13.3,15.8-13.6C1419.5,47,1412.6,52.5,1411.1,60.6z"/>
<path class="st2" d="M1141.7,18.7c0.4,0.3,0.9,0.6,1.4,0.8c0.7,0.2,1.5,0.5,2.3,0.4c1-0.1,1.8-0.8,2.3-1.6s0.7-1.8,0.8-2.7
	c0.1-1.6-0.1-3.2-0.6-4.7c-0.3-0.9-0.8-1.7-1.5-2.3c-2.4-1.9-4.5,0.9-5.3,2.9c-0.7,1.9-1,4.1-0.3,6C1141,18,1141.3,18.3,1141.7,18.7
	z"/>
<path class="st2" d="M1140.4,25.9c0.1-0.8,0-1.7-0.3-2.5c-0.4-1.3-1.2-2.6-2.1-3.6c-0.6-0.6-1.2-1.2-2-1.4c-2.6-0.7-3.4,2.3-3.3,4.2
	c0.1,1.8,0.6,3.7,1.8,5c0.3,0.4,0.7,0.5,1.2,0.7c0.4,0.1,1,0.2,1.4,0.2c0.7-0.1,1.4-0.1,2-0.5C1139.8,27.6,1140.3,26.8,1140.4,25.9z
	"/>
<path class="st2" d="M1161.1,26.7c0.6,0.3,1.3,0.3,2,0.3c0.5,0,1-0.1,1.4-0.3c0.5-0.2,0.8-0.4,1.1-0.7c1.2-1.4,1.5-3.3,1.4-5.2
	c-0.1-1.9-1.1-4.8-3.6-3.9c-0.8,0.3-1.4,0.9-1.9,1.5c-0.9,1.1-1.5,2.4-1.8,3.8c-0.2,0.8-0.3,1.7-0.1,2.5
	C1159.8,25.6,1160.3,26.3,1161.1,26.7z"/>
<path class="st2" d="M1153.6,19.3c0.8,0.1,1.5-0.1,2.3-0.3c0.5-0.1,1.1-0.4,1.5-0.7c0.5-0.3,0.7-0.6,1-1.1c0.9-1.9,0.6-4.1,0-6
	c-0.7-2.1-2.7-4.9-5.1-3.2c-0.8,0.5-1.3,1.4-1.6,2.2c-0.6,1.5-0.9,3.1-0.9,4.7c0,1,0.2,1.9,0.6,2.8S1152.7,19.1,1153.6,19.3z"/>
<path class="st2" d="M1162.7,37.2c-0.9-3.4-3.5-6.1-3.5-6.1c-1.2-1.1-1.9-2.5-2.2-3.5c-0.4-1.1-1-2.2-1.7-3.2
	c-0.3-0.5-0.7-0.9-1.1-1.2c-2.6-2.5-6.8-2.1-9,0.7c-0.6,0.7-1,1.5-1.3,2.2c-0.8,1.7-1.6,3.5-3,4.8c-2.6,2.6-3.8,6.4-3.6,9.6
	c0.1,1.6,2.3,4.1,4.3,3.9c4.3-0.4,4.1-2.9,4.1-2.9c4.9,5.3,7.9-0.4,7.9-0.4c0.6,1.4,1.9,2.2,3.1,2.4
	C1160.5,44.3,1163.7,40.9,1162.7,37.2z"/>
<path class="st2" d="M1317.1,118.6c0.6,0.5,1.2,1,2,1.2c0.9,0.3,2,0,2.7-0.6c0.8-0.6,1.3-1.4,1.8-2.2c0.7-1.4,1.1-3,1.2-4.6
	c0-0.9-0.1-1.9-0.5-2.7c-1.5-2.6-4.5-0.9-6,0.7c-1.4,1.5-2.6,3.4-2.6,5.5c0,0.5,0.1,1,0.4,1.4
	C1316.3,117.8,1316.7,118.3,1317.1,118.6z"/>
<path class="st2" d="M1306.8,123.9c0.4,0.3,0.8,0.6,1.3,0.7c0.7,0.2,1.3,0.4,2,0.3c0.8-0.1,1.6-0.7,2-1.4c0.4-0.7,0.6-1.6,0.7-2.4
	c0.1-1.4-0.1-2.8-0.6-4.2c-0.3-0.8-0.7-1.5-1.3-2c-2.1-1.6-4,0.8-4.7,2.6c-0.6,1.7-0.9,3.6-0.2,5.3
	C1306.2,123.3,1306.4,123.6,1306.8,123.9z"/>
<path class="st2" d="M1336.8,124.1c-0.8,0-1.6,0.3-2.3,0.7c-1.2,0.7-2.3,1.6-3.1,2.8c-0.5,0.7-0.9,1.4-1.1,2.3
	c-0.1,0.8,0,1.8,0.6,2.4c0.5,0.5,1.1,0.8,1.7,1.1c0.4,0.2,1,0.3,1.4,0.3c0.5,0,0.9,0,1.3-0.3c1.6-0.8,2.7-2.5,3.3-4.2
	C1339.3,127.3,1339.4,124.2,1336.8,124.1z"/>
<path class="st2" d="M1332,122.3c1.5-1.4,2.2-3.5,2.3-5.6c0.2-2.1-0.6-5.5-3.5-4.9c-0.9,0.2-1.7,0.8-2.4,1.4c-1.1,1.1-2,2.5-2.6,4
	c-0.3,0.9-0.6,1.8-0.5,2.8c0.1,0.9,0.6,1.9,1.4,2.4c0.7,0.4,1.4,0.5,2.2,0.6c0.5,0.1,1.2,0,1.7-0.1
	C1331.2,122.8,1331.6,122.7,1332,122.3z"/>
<path class="st2" d="M1326.8,131.5c0.1-1.2,0-2.5-0.3-3.6c-0.2-0.6-0.3-1.1-0.5-1.5c-1.5-3.3-5.5-4.6-8.6-2.8c-0.8,0.5-1.5,1-2,1.5
	c-1.4,1.3-2.8,2.6-4.6,3.3c-3.4,1.4-6,4.5-7,7.5c-0.5,1.5,0.5,4.7,2.4,5.3c4.1,1.3,4.9-1.1,4.9-1.1c2.5,6.7,7.5,2.7,7.5,2.7
	c0.1,1.5,1,2.7,1.9,3.4c3.1,2.1,7.3,0.1,7.8-3.6c0.5-3.5-0.9-6.9-0.9-6.9C1326.8,134.2,1326.7,132.5,1326.8,131.5z"/>
</svg>
