<?xml version="1.0" encoding="UTF-8"?>
<svg id="Layer_1" data-name="Layer 1" xmlns="http://www.w3.org/2000/svg" viewBox="0 0 199.03 212.78">
  <defs>
    <style>
      .cls-1 {
        fill: #98b9c4;
        stroke: #fff;
        stroke-miterlimit: 10;
        stroke-width: 2px;
      }
    </style>
  </defs>
  <path class="cls-1" d="M91.56,10.45c-8.27,7.68-15.28,17.49-16.21,28.71-.25,3,.2,5.24,1.52,8,1.21,2.54,3.03,5.49,5.05,7.49,3,2.98,6.14,6.05,10.13,7.47,5,1.79,10.7,.65,15.14-2.08s7.77-6.9,10.45-11.31c4.51-7.42,7.44-15.78,8.48-24.41,.61-5.03,.53-10.34-1.66-14.99-7.02-14.88-24.32-6.85-32.9,1.12Z"/>
  <path class="cls-1" d="M22.95,44.25c-4.14,9.09-6.52,19.49-3.46,28.96,.82,2.54,1.95,4.21,3.96,6.01,1.85,1.66,4.35,3.45,6.67,4.39,3.46,1.41,7.07,2.85,10.82,2.65,4.69-.24,8.96-3.11,11.65-6.86,2.69-3.74,3.99-8.28,4.68-12.79,1.16-7.59,.7-15.42-1.39-22.82-1.22-4.32-3.09-8.62-6.46-11.67-10.8-9.76-22.19,2.69-26.48,12.12Z"/>
  <path class="cls-1" d="M194.79,120.7c-4.22,9.05-10.56,17.63-19.76,21.46-2.46,1.03-4.47,1.26-7.15,.9-2.47-.33-5.44-1.06-7.68-2.21-3.32-1.71-6.76-3.52-9.05-6.49-2.87-3.73-3.46-8.83-2.37-13.31s3.69-8.41,6.68-11.87c5.02-5.82,11.26-10.56,18.24-13.79,4.07-1.88,8.56-3.26,13.07-2.68,14.44,1.85,12.39,18.61,8.01,28Z"/>
  <path class="cls-1" d="M176.76,51.7c-1.87,11.13-6.21,22.38-15.08,29.32-2.37,1.86-4.49,2.71-7.52,3.13-2.79,.38-6.25,.48-9.03-.1-4.13-.87-8.42-1.8-11.81-4.36-4.24-3.2-6.42-8.58-6.58-13.79-.16-5.21,1.49-10.28,3.71-14.94,3.72-7.85,9.1-14.89,15.74-20.5,3.87-3.27,8.34-6.13,13.43-6.85,16.29-2.32,19.09,16.55,17.14,28.1Z"/>
  <path class="cls-1" d="M69.46,89.59c3.17-2.59,7.07-5.26,11.66-7.47,17.7-8.48,38.93,.08,45.47,18.59,.9,2.54,1.66,5.34,2.26,8.43,1.26,6.57,1.29,13.31,.4,19.94-.73,5.39-1.14,14.31,2.13,22.44,0,0,5.98,19.26,1.79,38.14-4.43,20-28.23,28.99-44.17,16.13-4.94-3.99-9.21-11.13-8.99-19.33,0,0-28.82,20.02-39.47-17.65,0,0-5.77,12.87-27.4,4.03-10.08-4.12-14.4-21.55-11.01-29.68,6.59-15.81,22.21-31.34,41.14-37.6,9.76-3.23,18.23-9.46,26.19-15.97Z"/>
</svg>