<?xml version="1.0" encoding="utf-8"?>
<!-- Generator: Adobe Illustrator 27.0.0, SVG Export Plug-In . SVG Version: 6.00 Build 0)  -->
<svg version="1.1" id="Layer_1" xmlns="http://www.w3.org/2000/svg" xmlns:xlink="http://www.w3.org/1999/xlink" x="0px" y="0px"
	 viewBox="0 0 199 212.8" style="enable-background:new 0 0 199 212.8;" xml:space="preserve">
<style type="text/css">
	.st0{fill:#98B9C4;stroke:#FFFFFF;stroke-width:2;stroke-miterlimit:10;}
</style>
<path class="st0" d="M74.5,9.3c-2.2,4.6-2.3,10-1.7,15c1,8.6,4,17,8.5,24.4c2.7,4.4,6,8.6,10.4,11.3s10.1,3.9,15.1,2.1
	c4-1.4,7.1-4.5,10.1-7.5c2-2,3.8-5,5.1-7.5c1.3-2.8,1.8-5,1.5-8c-0.9-11.2-7.9-21-16.2-28.7C98.9,2.5,81.6-5.6,74.5,9.3z"/>
<path class="st0" d="M176.1,44.2c-4.3-9.4-15.7-21.9-26.5-12.1c-3.4,3-5.2,7.3-6.5,11.7c-2.1,7.4-2.5,15.2-1.4,22.8
	c0.7,4.5,2,9.1,4.7,12.8c2.7,3.8,7,6.6,11.6,6.9c3.8,0.2,7.4-1.2,10.8-2.7c2.3-0.9,4.8-2.7,6.7-4.4c2-1.8,3.1-3.5,4-6
	C182.6,63.7,180.2,53.3,176.1,44.2L176.1,44.2z"/>
<path class="st0" d="M4.2,120.7c-4.4-9.4-6.4-26.2,8-28c4.5-0.6,9,0.8,13.1,2.7c7,3.2,13.2,8,18.2,13.8c3,3.5,5.6,7.4,6.7,11.9
	s0.5,9.6-2.4,13.3c-2.3,3-5.7,4.8-9.1,6.5c-2.2,1.2-5.2,1.9-7.7,2.2c-2.7,0.4-4.7,0.1-7.1-0.9C14.8,138.3,8.4,129.8,4.2,120.7
	L4.2,120.7z"/>
<path class="st0" d="M22.2,51.7c-1.9-11.5,0.8-30.4,17.1-28.1c5.1,0.7,9.6,3.6,13.4,6.9c6.6,5.6,12,12.7,15.7,20.5
	c2.2,4.7,3.9,9.7,3.7,14.9s-2.3,10.6-6.6,13.8c-3.4,2.6-7.7,3.5-11.8,4.4c-2.8,0.6-6.2,0.5-9,0.1c-3-0.4-5.2-1.3-7.5-3.1
	C28.5,74.1,24.1,62.8,22.2,51.7L22.2,51.7z"/>
<path class="st0" d="M129.5,89.6c8,6.5,16.4,12.7,26.2,16c18.9,6.3,34.5,21.8,41.1,37.6c3.4,8.1-0.9,25.6-11,29.7
	c-21.6,8.8-27.4-4-27.4-4c-10.7,37.7-39.5,17.6-39.5,17.6c0.2,8.2-4,15.3-9,19.3c-15.9,12.9-39.7,3.9-44.2-16.1
	c-4.2-18.9,1.8-38.1,1.8-38.1c3.3-8.1,2.9-17.1,2.1-22.4c-0.9-6.6-0.9-13.4,0.4-19.9c0.6-3.1,1.4-5.9,2.3-8.4
	c6.5-18.5,27.8-27.1,45.5-18.6C122.5,84.3,126.4,87,129.5,89.6L129.5,89.6z"/>
</svg>
