<?xml version="1.0" encoding="utf-8"?>
<!-- Generator: Adobe Illustrator 27.0.0, SVG Export Plug-In . SVG Version: 6.00 Build 0)  -->
<svg version="1.1" xmlns="http://www.w3.org/2000/svg" xmlns:xlink="http://www.w3.org/1999/xlink" x="0px" y="0px"
	 viewBox="0 0 612 792" style="enable-background:new 0 0 612 792;" xml:space="preserve">
<style type="text/css">
	.st0{fill:none;}
	.st1{fill:#FFFFFF;}
	.st2{font-family:'manic-depressive';}
	.st3{font-size:102px;}
	.st4{font-family:'AvenirNext-Italic';}
	.st5{font-size:31px;}
	.st6{fill:none;stroke:#000000;stroke-width:3;stroke-miterlimit:10;}
	.st7{display:none;}
	.st8{display:inline;}
	.st9{display:inline;fill:none;stroke:#000000;stroke-width:3;stroke-miterlimit:10;}
	.st10{fill:#79BBDD;}
</style>
<g id="Layer_1">
	<rect x="-1.1" width="614.2" height="792"/>
	<rect x="20.9" y="107.8" class="st0" width="570.2" height="133.5"/>
	<text transform="matrix(1 0 0 1 25.0451 174.4296)" class="st1 st2 st3">The Raven</text>
	<rect x="273.6" y="199.1" class="st0" width="385.8" height="109.2"/>
	<text transform="matrix(1 0 0 1 353.9125 222.5551)" class="st1 st4 st5">Edgar Allan Poe</text>
	<path class="st6" d="M460.4,467.8"/>
</g>
<g id="Layer_2" class="st7">
	
		<image style="display:inline;overflow:visible;" width="600" height="600" xlink:href="../cat-silhouette-01.png"  transform="matrix(0.7778 0 0 0.7778 98.4965 166.6525)">
	</image>
</g>
<g id="Layer_3" class="st7">
	<path class="st8" d="M475.6,343.8"/>
	
		<image style="display:inline;overflow:visible;" width="2400" height="1600" xlink:href="../../../Downloads/raven.jpeg"  transform="matrix(0.33 0 0 0.33 0 264.0011)">
	</image>
	<path class="st9" d="M590.2,489.8c0,0-92.9-21-149.4-11.1"/>
</g>
<g id="Layer_4">
	<path class="st10" d="M0,656.1c0,0-1.2-31-1.1-57.7c0,0,21.9-11.7,27.8-38.8s54.8-97.1,54.8-97.1s46.9-64.1,82.6-72.7
		c24.8-6,47-19.2,58.3-26.8c6.5-4.4,13.8-7.6,21.5-9.4c18.1-4.4,50.3-9.2,71.6,3.9c31,19.2,49.5,29.7,52.8,42.3
		c0,0,175.8,19.8,187.3,91.2c0,0-22.8-5.3-24.1,1.3c-1.1,5.4-62.8,5.9-85.5,6c-7.1,0-14.1,1.5-20.6,4.4
		c-15.7,7.1-40.7,23.8-41.2,58.3c-0.7,50.2,0,101.7-1.3,116.3c-1.3,14.5-19.2,66.7-24.4,73.3c0,0,9.2,27.5,7.3,41.5H-1.1L0,656.1z"
		/>
	<path d="M286.8,434.3c0,0,23.3-15.4,31,5.9c0,0-0.4,10.9-11.2,12.9c-6.7,1.3-13.4-2.1-17.1-7.9
		C287.6,442.2,286.1,438.3,286.8,434.3z"/>
	<circle class="st10" cx="302.2" cy="441.2" r="6.6"/>
	<g>
		<path d="M553.2,495c-7.1-1.8-14.3-3.5-21.4-5.1c-7.1-1.6-14.3-3.2-21.5-4.7c-14.4-3-28.8-5.6-43.3-7.7c-14.5-2.1-29-3.7-43.7-4.2
			c-7.3-0.2-14.6-0.2-21.9,0.3c-7.3,0.4-14.6,1.5-21.7,3.3l5.3-1.7l5.4-1.3c1.8-0.4,3.6-0.7,5.4-1c1.8-0.4,3.6-0.5,5.5-0.8
			c7.3-0.9,14.7-1.2,22.1-1.2c7.4,0,14.7,0.5,22.1,1c7.3,0.6,14.7,1.5,21.9,2.6c7.3,1.1,14.5,2.3,21.8,3.7c7.2,1.4,14.4,3,21.6,4.7
			C525.1,486.3,539.3,490.3,553.2,495z"/>
	</g>
</g>
</svg>
